<svg width="85" height="96" viewBox="0 0 85 96" fill="none" xmlns="http://www.w3.org/2000/svg">
<path fill-rule="evenodd" clip-rule="evenodd" d="M1 7H18.0254V11.086H50.4699V7H68V56.6679C67.1281 56.5317 66.2103 56.4863 65.2925 56.4863C63.5945 56.4863 61.8966 56.7133 60.3363 57.1219V16.3979H17.4747L9.12262 23.3895V75.0096H46.2479C46.2479 75.1458 46.2479 75.2366 46.2479 75.3274C46.2479 78.0514 46.7986 80.6392 47.8541 83H1V7V7Z" stroke="#EF7F1A" stroke-miterlimit="22.9256" stroke-linecap="round" stroke-linejoin="round"/>
<path fill-rule="evenodd" clip-rule="evenodd" d="M18 4H27.7312V5.33333H39.4088V4H50V12H18V4Z" stroke="#EF7F1A" stroke-miterlimit="22.9256" stroke-linecap="round" stroke-linejoin="round"/>
<path d="M40 1H28V5H40V1Z" stroke="#EF7F1A" stroke-miterlimit="22.9256" stroke-linecap="round" stroke-linejoin="round"/>
<path fill-rule="evenodd" clip-rule="evenodd" d="M17.3172 17H60V57.9938C52.0027 60.1418 46.1075 67.4082 45.9704 76H9V24.038L17.3172 17V17Z" stroke="#EF7F1A" stroke-miterlimit="22.9256" stroke-linecap="round" stroke-linejoin="round"/>
<path fill-rule="evenodd" clip-rule="evenodd" d="M17 17L9 24L17 23.8654V17Z" stroke="#EF7F1A" stroke-miterlimit="22.9256" stroke-linecap="round" stroke-linejoin="round"/>
<path d="M19 33H51" stroke="#EF7F1A" stroke-miterlimit="22.9256" stroke-linecap="round" stroke-linejoin="round"/>
<path d="M19 37H38" stroke="#EF7F1A" stroke-miterlimit="22.9256" stroke-linecap="round" stroke-linejoin="round"/>
<path d="M19 46H51" stroke="#EF7F1A" stroke-miterlimit="22.9256" stroke-linecap="round" stroke-linejoin="round"/>
<path d="M19 50H38" stroke="#EF7F1A" stroke-miterlimit="22.9256" stroke-linecap="round" stroke-linejoin="round"/>
<path d="M19 58H47" stroke="#EF7F1A" stroke-miterlimit="22.9256" stroke-linecap="round" stroke-linejoin="round"/>
<path d="M19 63H38" stroke="#EF7F1A" stroke-miterlimit="22.9256" stroke-linecap="round" stroke-linejoin="round"/>
<path d="M65 95C75.4934 95 84 86.4934 84 76C84 65.5066 75.4934 57 65 57C54.5066 57 46 65.5066 46 76C46 86.4934 54.5066 95 65 95Z" stroke="#EF7F1A" stroke-miterlimit="22.9256"/>
<path fill-rule="evenodd" clip-rule="evenodd" d="M62.641 86.1427C62.686 86.1427 62.686 86.1427 62.731 86.0976H62.776H62.8211C63.0012 86.0976 63.3163 85.7366 63.4964 85.511L63.5864 85.4208L63.7215 85.3305C63.9016 85.1501 64.2618 84.7891 64.2618 84.6086V84.5635C64.3068 84.5184 64.3068 84.5184 64.3068 84.5184C64.3068 84.4732 64.3068 84.4281 64.3068 84.383L64.1717 84.1574C64.1717 84.1123 64.1717 84.0672 64.1717 84.0672C64.1267 84.022 64.1267 84.022 64.0817 83.9769C64.0367 83.9318 63.9916 83.9318 63.9016 83.8867H63.8566C63.7665 83.8415 63.6315 83.7964 63.5864 83.7964C63.4964 83.7964 63.4514 83.8415 63.4063 83.8867C63.4063 83.9318 63.1812 84.1123 63.1362 84.2025C63.0912 84.2025 63.0462 84.2476 63.0012 84.2928C62.9561 84.3379 62.9111 84.383 62.9111 84.4281L62.5959 84.6988C62.5509 84.744 62.5059 84.7891 62.4609 84.7891C62.4158 84.8342 62.4159 84.8793 62.3708 84.9244V84.9696C62.2808 85.0598 62.1457 85.1952 62.0556 85.2403C62.0106 85.2854 62.0106 85.2854 62.0106 85.3757C62.0106 85.4659 62.0106 85.511 62.0106 85.5561L62.0556 85.6464C62.0556 85.7366 62.1007 85.8269 62.1457 85.9171C62.1907 85.9622 62.2358 86.0073 62.3258 86.0073L62.4609 86.0976C62.5059 86.0976 62.5509 86.1427 62.641 86.1427ZM55.3923 70.2602L57.3282 71.6138C57.6434 71.8394 57.8685 72.1553 57.9135 72.5162C57.9586 72.7418 57.9136 72.9674 57.8685 73.193C57.9136 73.193 57.9585 73.2382 58.0486 73.2382L58.1837 73.2833C58.2287 73.3284 58.2737 73.3284 58.3188 73.3284C58.4088 73.3735 58.4988 73.3735 58.5439 73.3735L58.6339 73.4186L59.1292 73.4638H59.2192C59.3993 73.5089 59.6244 73.5089 59.6694 73.4638L59.7145 73.4186H59.7595C59.8045 73.4638 59.8945 73.4186 59.9846 73.4186C60.0746 73.4186 60.1647 73.3735 60.2097 73.3735L60.2547 73.3284C60.3448 73.3284 60.4348 73.2833 60.5249 73.2833C60.6149 73.2382 60.6599 73.193 60.705 73.193L60.75 73.1479H60.795C60.84 73.1479 60.9301 73.1028 61.0201 73.0577C61.1102 73.0577 61.1552 73.0126 61.2002 73.0126C61.2903 72.9674 61.3803 72.9674 61.4704 72.9223C61.6054 72.9223 61.6955 72.8772 61.7855 72.8772C61.8305 72.8772 61.8756 72.8772 61.8756 72.8772L61.9206 72.8321L62.776 72.8772H62.8211C62.8661 72.9674 63.0461 72.9674 63.1812 73.0126C63.2262 73.0126 63.3163 73.0126 63.3613 73.0126C63.4514 73.0577 63.5414 73.1028 63.6315 73.1479C63.7215 73.1479 63.8116 73.193 63.9016 73.193L63.9466 73.2382C63.9917 73.2382 64.0817 73.2833 64.1717 73.3284C64.2618 73.3735 64.3068 73.3735 64.3518 73.4186C64.3518 73.4186 64.3518 73.4638 64.3518 73.4186L64.8471 73.2382C65.1622 73.0577 65.5674 72.9674 65.9727 72.8772C66.0177 72.8772 66.0177 72.8772 66.0627 72.8772C66.1528 72.8772 66.1978 72.8772 66.2428 72.8772V72.8321H66.9181V72.8772C66.9632 72.8772 67.0082 72.8772 67.0982 72.9223C67.2783 72.9223 67.5034 72.9674 67.5485 73.0126H67.5935C67.6835 73.0577 67.9537 73.1479 68.2238 73.2382C68.4039 73.2833 68.539 73.3284 68.539 73.3284H68.584L68.629 73.3735C68.6741 73.3735 68.674 73.3735 68.674 73.3735L68.7191 73.4186H68.7641C68.8091 73.4186 68.8992 73.4186 68.9442 73.4638H68.9892H69.6195H69.7096C69.8446 73.4638 70.1148 73.4638 70.2048 73.3735H70.2499H70.2949C70.3399 73.3735 70.4299 73.3735 70.475 73.3735C70.565 73.3284 70.655 73.2833 70.7451 73.2382C70.8802 73.2382 70.9702 73.1479 71.1053 73.1028C71.0603 72.9223 71.0603 72.7418 71.1053 72.5613C71.1503 72.2455 71.3304 71.9297 71.6456 71.7041L73.6266 70.3504C73.9418 70.1248 74.3019 70.0346 74.6171 70.1248C74.9773 70.1699 75.2924 70.3504 75.5176 70.6663L78.7592 75.3137C78.9843 75.6296 79.0293 75.9905 78.9843 76.3515C78.9393 76.6673 78.7142 76.9832 78.4441 77.2088L76.463 78.6075C76.1479 78.788 75.7877 78.8783 75.4725 78.8331C75.2924 78.788 75.1574 78.7429 75.0223 78.6526L73.9867 79.4648C73.6716 79.8258 72.9963 80.277 72.6361 80.5477L72.7711 80.7733C72.9062 80.9087 73.0413 81.1343 73.1313 81.3148C73.1764 81.405 73.2214 81.4953 73.2664 81.5855C73.2664 81.6758 73.3114 81.8111 73.3114 81.9014C73.3114 82.0818 73.3114 82.2172 73.2664 82.3074C73.2664 82.3977 73.2664 82.4879 73.2664 82.533V82.5782L73.2214 82.6233C73.2214 82.6233 73.1764 82.6684 73.1313 82.7587C72.9512 83.0294 72.546 83.6611 71.4204 83.4806V83.6159C71.3754 83.7964 71.3304 83.9769 71.2403 84.1123C71.1503 84.2476 71.0153 84.383 70.8802 84.4732C70.565 84.6988 70.4299 84.6988 70.2048 84.744C70.1148 84.744 70.0247 84.744 69.8446 84.744V84.7891C69.7996 84.744 69.7096 84.6988 69.6645 84.6988C69.6195 84.7891 69.6195 84.8793 69.6195 84.9244C69.5745 85.1049 69.5295 85.2403 69.3494 85.4659C69.2143 85.6915 68.9892 85.7817 68.8541 85.872C68.7641 85.9171 68.7191 85.9171 68.7191 85.9622L68.674 86.0073C68.584 86.0073 68.4489 86.0073 68.3589 86.0073C68.0437 86.0525 67.9086 86.0073 67.6835 85.9171H67.5935C67.5485 86.0073 67.5034 86.1427 67.4584 86.2329C67.4134 86.3683 67.3233 86.4585 67.2333 86.5488C67.0982 86.6842 66.9181 86.7293 66.738 86.8195L66.5579 86.9098L65.9727 87V86.9549C65.9276 86.9549 65.8826 86.9098 65.7926 86.9098C65.7475 86.9098 65.7025 86.9098 65.6575 86.8646C65.2973 86.7293 65.1623 86.5939 65.0722 86.4586C65.0272 86.4134 65.0272 86.3683 64.9371 86.3683V86.3232L64.8471 86.2329H64.802C64.802 86.1427 64.622 86.0073 64.5319 85.9171L64.4419 85.8269H64.3969C64.3969 85.8269 64.3518 85.872 64.2618 85.9622C64.1267 86.0976 63.9917 86.2329 63.9466 86.2781V86.3232H63.9016C63.8566 86.3232 63.8566 86.3232 63.8566 86.3683L63.8116 86.4134C63.5414 86.7293 63.2263 86.8646 62.9111 86.9549C62.686 87 62.4609 86.9549 62.2357 86.9098C62.0106 86.8646 61.8305 86.7293 61.6505 86.5939C61.4253 86.4134 61.2903 86.1878 61.2002 85.9171C61.0652 85.9622 60.9301 86.0073 60.75 86.0073C60.66 86.0073 60.2097 85.9622 60.1647 85.9622C59.8945 85.8269 59.6244 85.6915 59.4443 85.4659C59.3093 85.2854 59.1742 85.0147 59.1292 84.6988C58.9491 84.744 58.769 84.744 58.5889 84.7891L58.5439 84.744C58.4988 84.6988 58.4538 84.6988 58.3638 84.6537C58.1837 84.6086 57.9586 84.5184 57.7334 84.2928C57.6434 84.2025 57.5534 84.022 57.4633 83.8415C57.4183 83.7062 57.3733 83.5708 57.3733 83.4355C57.0131 83.4806 56.923 83.4806 56.5178 83.3903H56.4728C56.2027 83.255 56.0226 83.2099 55.9325 83.0745C55.7975 82.9391 55.7074 82.8038 55.5724 82.533C55.5724 82.4879 55.5723 82.4879 55.5273 82.4428C55.4823 82.127 55.4373 81.9916 55.5273 81.6306C55.6174 81.3599 55.7074 81.2245 55.7974 81.0892L55.8875 80.9087L56.0226 80.8185L56.2477 80.638V80.5928C56.1577 80.5477 56.0226 80.4124 55.8875 80.3221C55.7074 80.1868 55.5724 80.0514 55.4373 79.9612L55.2122 79.8709L55.3022 79.8258L55.1671 79.7356C55.0771 79.6453 55.0321 79.6002 54.942 79.6002L54.897 79.5551V79.5099L54.852 79.4648C54.8069 79.4648 54.807 79.4648 54.7619 79.4197L54.7169 79.3746L54.6269 79.2843L54.5368 79.1941L54.4017 79.149L54.3567 79.1039C54.3567 79.0136 54.1316 78.8783 53.9515 78.7429L53.8165 78.6526C53.7264 78.6978 53.6363 78.6978 53.5463 78.7429C53.2311 78.788 52.871 78.7429 52.5558 78.5173L50.5748 77.1186C50.2596 76.8929 50.0795 76.5771 50.0345 76.2613C49.9445 75.9003 50.0345 75.5393 50.2596 75.2235L53.5013 70.576C53.7264 70.2602 54.0415 70.0797 54.3567 70.0346C54.7169 69.9443 55.0771 70.0346 55.3923 70.2602ZM57.4183 73.8698L54.4918 78.1112C54.5819 78.2014 54.7619 78.3819 54.897 78.4722L54.942 78.5173C55.0771 78.5624 55.1221 78.6527 55.2122 78.6978C55.3022 78.788 55.3922 78.8783 55.4823 78.9234C55.8425 79.1941 56.2477 79.5099 56.5629 79.7807C56.6529 79.8258 56.743 79.9612 56.878 80.0063C56.923 79.916 56.9681 79.916 57.0131 79.8258C57.0581 79.7807 57.1031 79.7807 57.1932 79.7356C57.2382 79.6904 57.2832 79.6453 57.3282 79.6453C57.4183 79.6002 57.4633 79.5551 57.5533 79.5551C57.5984 79.5551 57.6884 79.5099 57.7785 79.5099C58.1387 79.4648 58.3187 79.51 58.5889 79.6453C58.6789 79.6453 58.6789 79.6453 58.769 79.6904C58.904 79.8258 58.9941 79.8709 59.0841 79.9612C59.1292 80.0063 59.1742 80.0965 59.2642 80.277L59.3543 80.4124L59.3993 80.6831L59.4893 80.638C59.6244 80.5026 59.7595 80.3672 59.9396 80.277C59.9846 80.277 59.9846 80.277 60.0296 80.2319L60.2097 80.1416L60.75 80.0965C60.9301 80.1868 61.1552 80.2319 61.3353 80.3221V80.3672H61.4253L61.8756 80.9087V80.9989L61.9656 81.3148H62.1007C62.1907 81.3148 62.3258 81.2697 62.5059 81.2697C62.641 81.2697 62.731 81.3148 62.8661 81.3148C62.9111 81.3599 62.9561 81.405 63.0012 81.405C63.1362 81.4501 63.3163 81.5404 63.4964 81.7209C63.5414 81.766 63.5414 81.766 63.5414 81.8111C63.5864 81.8562 63.5865 81.8562 63.6315 81.9014L63.6765 81.9465C63.9016 82.533 63.9016 82.5782 63.8566 82.7587C63.8566 82.8038 63.8566 82.8489 63.8566 82.9843C63.9916 83.0294 64.1267 83.0745 64.2618 83.1196C64.3969 83.1647 64.5319 83.255 64.622 83.3452C64.7571 83.4355 64.8471 83.5257 64.8921 83.6611C64.9822 83.7513 65.0272 83.9318 65.1172 84.0672C65.1172 84.1123 65.1172 84.1574 65.1172 84.2025L65.1622 84.2476V84.2928C65.1622 84.383 65.1622 84.4281 65.1172 84.5184C65.1172 84.6086 65.1172 84.6988 65.0722 84.8342C65.0722 84.9244 65.0272 85.0147 64.9821 85.0598L64.9371 85.1952H65.0272V85.2403C65.1172 85.3757 65.2073 85.4659 65.3423 85.6013L65.4774 85.6915L65.5675 85.7817C65.7025 85.9171 65.8376 86.0525 66.0177 86.0976C66.1077 86.1427 66.1978 86.1427 66.2878 86.1427C66.3328 86.0976 66.4229 86.0976 66.4229 86.0525H66.4679V86.0073C66.558 86.0073 66.603 85.9622 66.648 85.9171C66.693 85.872 66.7381 85.7817 66.7831 85.6915C66.8281 85.5561 66.8281 85.4208 66.8281 85.3305C66.8281 85.2854 66.7831 85.1952 66.738 85.15L66.693 85.1049C66.603 85.0147 66.558 85.0147 66.5129 84.9244C66.4679 84.8793 66.4679 84.8793 66.4229 84.8342C66.4229 84.7891 66.3779 84.744 66.3779 84.744H66.3328L66.2878 84.6988C66.2428 84.6537 66.2428 84.6086 66.1978 84.6086L66.1528 84.5635C66.1077 84.5184 66.1077 84.4732 66.0627 84.4281L65.9727 84.383V84.3379L65.9276 84.2928C65.9276 84.2476 65.8826 84.2476 65.8826 84.2476L65.7926 84.2025V84.1574C65.7475 84.1123 65.7476 84.1123 65.7025 84.0672L65.6575 84.022L65.6125 83.9318C65.6125 83.8867 65.6125 83.8867 65.5675 83.8415L65.5224 83.7964V83.7513C65.5675 83.6159 65.5675 83.4806 65.6575 83.3903C65.7475 83.3001 65.8826 83.3001 66.0627 83.3001H66.1077C66.3328 83.4806 66.3779 83.5257 66.4229 83.5708C66.4229 83.6159 66.4679 83.6611 66.5579 83.7513C66.603 83.7964 66.603 83.8415 66.648 83.8415C66.693 83.8867 66.7381 83.9318 66.7831 83.9769L67.4584 84.6988C67.5034 84.7891 67.5485 84.8342 67.5935 84.8793C67.7286 85.0147 67.8186 85.0598 67.9086 85.1049L67.9537 85.15C67.9987 85.15 68.0887 85.1952 68.1788 85.1952C68.3138 85.1952 68.4489 85.15 68.539 85.1049L68.584 85.0598C68.7641 84.9696 68.8091 84.7891 68.8541 84.6086C68.8541 84.4281 68.8091 84.2025 68.7641 84.0672L68.7191 83.9769C68.674 83.9318 68.539 83.7964 68.4489 83.6611C68.3589 83.6159 68.3139 83.5708 68.3139 83.5708H68.2688L68.2238 83.4806C68.2238 83.4355 68.2238 83.4355 68.1788 83.3903L68.0887 83.3452L67.9987 83.3001V83.255C67.9987 83.2099 67.9987 83.1647 67.9537 83.1647C67.9087 83.1196 67.8636 83.0745 67.8186 83.0294C67.7736 82.9843 67.7736 82.9843 67.7286 82.9391L67.6835 82.894L67.6385 82.8038C67.5935 82.7586 67.5935 82.7586 67.5485 82.7135H67.5035V82.6684C67.5035 82.6233 67.4584 82.6233 67.4584 82.6233C67.4584 82.5782 67.4134 82.5782 67.3684 82.533C67.2783 82.4428 67.2333 82.3526 67.2333 82.2623C67.2333 82.1721 67.2783 82.0818 67.3234 81.9916V81.9465L67.3684 81.9014C67.4134 81.9014 67.4584 81.8562 67.5035 81.8111H67.5485C67.8636 81.766 67.9086 81.8562 68.0437 82.0367C68.1338 82.127 68.1788 82.1721 68.2238 82.2172C68.2688 82.2623 68.2688 82.2623 68.3589 82.3074C68.4039 82.3977 68.4489 82.4428 68.4489 82.4879C68.494 82.533 68.539 82.5782 68.584 82.6684C68.7191 82.7135 68.8992 82.9391 69.1243 83.1647C69.3944 83.4806 69.6646 83.7964 69.7546 83.8415C69.7996 83.8867 69.8446 83.8867 69.8446 83.8867C69.8897 83.9318 69.9347 83.9318 69.9797 83.9318C70.1148 83.9318 70.1148 83.9318 70.1598 83.8867H70.2048C70.2949 83.8867 70.3849 83.8415 70.4299 83.7964C70.475 83.7062 70.52 83.6611 70.52 83.6159V83.5708L70.565 83.5257C70.61 83.4806 70.6551 83.4806 70.7001 83.4806C70.7001 83.4806 70.61 83.4806 70.61 83.4355V83.3903V83.3452C70.61 83.255 70.61 83.2099 70.61 83.2099C70.565 83.1647 70.565 83.1196 70.52 83.1196V83.0745V83.0294C70.475 82.9391 70.3399 82.8038 70.2499 82.7135C70.2048 82.6684 70.1148 82.6233 70.1148 82.533L69.1693 81.4953C69.1243 81.4501 69.0792 81.405 69.0342 81.3599C68.8992 81.2245 68.7641 81.0892 68.7191 80.8185V80.7733C68.7641 80.6831 68.8091 80.5928 68.8541 80.5477C68.9442 80.5026 68.9892 80.4575 69.1243 80.4575H69.1693C69.3944 80.4575 69.4394 80.5477 69.5745 80.7282C69.6195 80.7733 69.7096 80.8636 69.7996 80.9538C69.8446 80.9989 69.8896 81.0441 69.9347 81.0892L69.9797 81.1343L71.0152 82.3074C71.1953 82.4879 71.4204 82.7135 71.8707 82.6684C71.9157 82.6684 72.0508 82.6233 72.1408 82.5782C72.1858 82.5782 72.2309 82.533 72.2309 82.533V82.4879L72.2759 82.4428C72.3659 82.4428 72.3659 82.3977 72.411 82.3526C72.456 82.3074 72.456 82.2172 72.456 82.127C72.501 82.0367 72.501 81.9014 72.456 81.8111C72.411 81.7209 72.3659 81.5855 72.3209 81.5404C72.2309 81.405 72.1408 81.3148 72.0508 81.2245L71.8707 80.9989L71.4655 80.4575C71.3304 80.3221 71.1953 80.1416 71.0602 79.9612L70.7451 79.5099H70.7001H70.6551L70.61 79.4197C70.565 79.2843 70.475 79.149 70.3399 79.0136C69.9347 78.5173 69.2143 77.7502 68.9442 77.299C68.9442 77.2539 68.8541 77.1637 68.7641 77.0283C68.7191 76.9832 68.6741 76.8929 68.629 76.8929C68.584 76.8478 68.3589 76.8478 68.1788 76.8478H67.9987H67.6385C67.1883 76.8478 66.603 76.8027 66.4679 76.8478L66.4229 76.8929V76.9381C66.3328 77.0283 66.1077 77.299 66.0177 77.3442C65.9276 77.3893 65.8826 77.4344 65.8376 77.5246L65.7926 77.5698L65.6125 77.7502C65.5674 77.7502 65.5675 77.7954 65.5675 77.8405L65.5224 77.8856H65.4774C65.4324 77.9307 65.3874 77.9758 65.2973 78.021C65.2523 78.0661 65.2523 78.0661 65.2073 78.1112V78.1563C65.0722 78.2014 64.622 78.6527 64.3969 78.788C64.2168 78.9234 63.9917 79.1039 63.9466 79.149V79.1941H63.9016C63.8566 79.1941 63.7215 79.2392 63.5864 79.3295C63.5414 79.3746 63.4964 79.3746 63.4514 79.4197C63.3163 79.4648 63.1812 79.5099 63.0462 79.5551C62.9111 79.6002 62.9111 79.6002 62.776 79.6453C62.641 79.6453 62.5509 79.6453 62.5059 79.6904H62.4609C61.9656 79.6904 61.8756 79.6904 61.4704 79.5551C61.3803 79.5551 61.2903 79.5099 61.2002 79.4648C61.1102 79.4197 61.0651 79.3746 60.9751 79.3295C60.8851 79.2843 60.84 79.2392 60.795 79.1941C60.75 79.149 60.705 79.1039 60.6599 79.0587C60.5699 79.0136 60.5249 78.9234 60.4798 78.9234H60.4348L60.2097 78.4722V78.427C60.2097 78.1563 60.2998 78.0661 60.3898 77.9758C60.4348 77.9307 60.4348 77.8856 60.4798 77.8856V77.8405L60.5249 77.7502H60.5699C60.6149 77.7051 60.6599 77.7051 60.6599 77.66L60.705 77.5698C60.75 77.5246 60.795 77.5246 60.795 77.4795C60.84 77.4795 60.84 77.4344 60.8851 77.3893C61.6054 76.6222 62.3708 75.5393 63.0912 74.8174C63.1362 74.7723 63.1362 74.7271 63.1812 74.7271C63.1812 74.682 63.1812 74.682 63.2262 74.5918L63.2713 74.5467C63.3163 74.5467 63.3163 74.5467 63.3163 74.5467C63.3163 74.5015 63.3163 74.5015 63.3613 74.4564V74.4113H63.4063C63.4514 74.3662 63.4964 74.3211 63.5864 74.2308C63.6315 74.1857 63.6765 74.0955 63.7215 74.0503C63.6765 74.0503 63.5865 74.0052 63.4964 73.9601C63.2713 73.8698 63.0011 73.8247 62.8661 73.7796H62.776C62.686 73.7345 62.5959 73.7345 62.4609 73.7345H62.4158C62.3708 73.6894 62.2357 73.6894 62.1007 73.6894H62.0556C61.9656 73.6894 61.8756 73.6894 61.8305 73.7345C61.7855 73.7345 61.7855 73.7345 61.7405 73.7796H61.6955C61.6505 73.7796 61.5604 73.7796 61.5154 73.7796C61.4253 73.8247 61.3803 73.8247 61.2903 73.8698C61.2002 73.915 61.0651 73.9601 60.9751 74.0052C60.9301 74.0052 60.8401 74.0503 60.75 74.0955C60.705 74.0955 60.6149 74.0954 60.5699 74.1406C60.4348 74.1406 60.2547 74.1857 60.2097 74.2308V74.2759H60.1647C60.0296 74.2759 59.8945 74.2759 59.8045 74.2759C59.7144 74.3211 59.6244 74.3211 59.4893 74.3211C59.3993 74.3211 59.2642 74.3211 59.1742 74.3211C59.0391 74.2759 58.9041 74.2759 58.814 74.3211H58.769L58.7239 74.2759C58.6789 74.2308 58.4988 74.2308 58.3638 74.1857C58.2737 74.1857 58.2287 74.1406 58.1837 74.1406C58.0486 74.1406 57.9586 74.0955 57.8685 74.0503C57.7785 74.0052 57.6884 73.9601 57.5984 73.9601C57.5984 73.9601 57.5083 73.915 57.4183 73.8698ZM74.2119 71.1626L72.2309 72.5613C72.1858 72.6065 72.1408 72.6967 72.0958 72.7418C72.0958 72.8321 72.0958 72.9223 72.1408 73.0126L75.1123 77.2539L75.4275 77.66C75.4725 77.7502 75.5626 77.7954 75.6076 77.7954C75.6976 77.8405 75.7877 77.7954 75.8777 77.7502L77.8587 76.3966C77.9038 76.3064 77.9488 76.2613 77.9938 76.171C77.9938 76.0808 77.9938 75.9905 77.9038 75.9003L74.6621 71.2528C74.6171 71.1626 74.527 71.1175 74.437 71.1175C74.3469 71.1175 74.2569 71.1175 74.2119 71.1626ZM74.392 78.0661C73.6266 77.1185 72.1858 74.8625 71.4655 73.8247H71.4204C71.3754 73.8698 71.3304 73.8698 71.3304 73.915L71.2854 73.9601H71.2403C71.1953 73.9601 71.0603 74.0052 70.9702 74.0503C70.9252 74.0503 70.8351 74.0955 70.7901 74.0955C70.7001 74.1406 70.61 74.1406 70.52 74.1857C70.3399 74.2308 70.2499 74.2308 70.0698 74.2759C69.9797 74.2759 69.8446 74.2759 69.7996 74.3211H69.1243C69.0342 74.2759 68.8541 74.2308 68.674 74.2308C68.3138 74.1857 67.9087 74.0052 67.5035 73.915V73.8698C67.4584 73.8247 67.3684 73.8247 67.2783 73.7796C67.1883 73.7345 67.0982 73.7345 67.0082 73.7345L66.5129 73.6894H66.4229C66.2878 73.6894 66.1077 73.6894 66.0627 73.7345L66.0177 73.7796H65.9727C65.9276 73.7796 65.8376 73.7796 65.7476 73.7796C65.6575 73.7796 65.6125 73.8247 65.5675 73.8698H65.5224C65.4324 73.8698 65.2523 73.9601 65.0722 74.0052C64.8921 74.0955 64.757 74.1857 64.667 74.2308L62.9111 76.3064V76.3515L62.8661 76.3966H62.8211C62.731 76.4869 62.686 76.5771 62.5959 76.6673C62.3258 77.0283 61.9656 77.4344 61.6505 77.7954C61.6054 77.8405 61.5604 77.8856 61.4704 77.9758C61.3803 78.1112 61.2452 78.2466 61.1552 78.3819C61.2002 78.427 61.2452 78.5173 61.3353 78.5624H61.3803C61.3803 78.6075 61.4704 78.6527 61.5604 78.6978C61.6054 78.7429 61.7405 78.788 61.7855 78.788H61.8305C61.9206 78.8331 62.0556 78.8783 62.2357 78.8783C62.3708 78.8783 62.5059 78.8331 62.641 78.788C62.641 78.788 62.686 78.788 62.731 78.788L62.776 78.7429L62.8211 78.6978H62.8661C63.0011 78.6978 63.1812 78.6075 63.3163 78.5173L63.6765 78.2917C63.7665 78.2466 63.8116 78.2014 63.8116 78.2014L63.8566 78.1563V78.1112C64.0367 78.0661 64.1267 77.9758 64.2168 77.8856C64.2168 77.8856 64.2618 77.8405 64.3518 77.7954L64.4869 77.66C64.622 77.5246 64.712 77.4795 64.7571 77.3893C64.8921 77.299 65.0272 77.2088 65.2523 76.8929C65.4774 76.7125 65.6575 76.4869 65.8826 76.2613C65.9276 76.2161 65.9727 76.171 65.9727 76.171C66.0177 76.1259 66.0627 76.0808 66.1077 76.0356L66.1528 75.9905H66.1978C66.4229 76.0357 66.8731 76.0357 67.3684 75.9905C68.0887 75.9905 68.9442 75.9905 69.0793 76.1259C69.3044 76.2612 70.0698 77.299 70.3399 77.7051H70.3849L70.4299 77.7502C70.475 77.8405 70.475 77.8856 70.52 77.9307L70.565 77.9758L70.7001 78.1563H70.7451L70.7901 78.2014V78.2466H70.8352V78.2917C70.9252 78.427 71.1953 78.7429 71.3754 78.9685L71.5105 79.149L71.6005 79.2843C71.7356 79.4648 71.9607 79.7807 72.0958 79.916C72.1408 79.8709 72.1858 79.8709 72.2309 79.8258C72.8162 79.2843 73.6716 78.6527 74.3019 78.1563L74.3469 78.0661H74.392ZM56.788 72.4711L54.807 71.0724C54.7169 71.0272 54.6269 71.0272 54.5368 71.0272C54.4468 71.0272 54.4017 71.0724 54.3567 71.1626L51.07 75.81C51.025 75.9003 51.025 75.9905 51.025 76.0808C51.07 76.171 51.1151 76.2613 51.1601 76.3064L53.1411 77.66C53.1861 77.7051 53.2762 77.7502 53.3662 77.7051L53.6364 77.3893L53.6814 77.299V77.2539L53.7264 77.2088C53.7714 77.2088 53.7714 77.1637 53.8165 77.1186L54.852 75.6747V75.6296L54.897 75.5844C54.987 75.5393 54.987 75.5393 55.0321 75.4491L55.0771 75.404L55.1221 75.3137C55.1672 75.2686 55.2122 75.2235 55.2572 75.1332L56.5629 73.3284L56.833 72.9223C56.878 72.8321 56.923 72.7418 56.878 72.6967C56.878 72.6065 56.833 72.5162 56.788 72.4711ZM60.3448 83.7513C60.2998 83.7964 60.2998 83.8415 60.2547 83.8867L60.2097 83.9318C60.1197 83.9769 60.0296 84.1123 59.9846 84.2928C59.9846 84.383 59.9846 84.4732 59.9846 84.5635C59.9846 84.6537 60.0296 84.744 60.0296 84.8342C60.1197 84.9696 60.2547 85.1049 60.4798 85.15C60.9301 85.2403 61.2002 84.9696 61.5154 84.6086C61.6054 84.5184 61.6955 84.4281 61.7405 84.3379L62.9111 83.2099C62.9561 83.1196 63.0011 82.9842 63.0462 82.8489C63.0462 82.7135 63.0462 82.5782 62.9561 82.4428C62.9111 82.3526 62.8661 82.2623 62.731 82.2172C62.6409 82.127 62.5059 82.127 62.3258 82.0818C62.2358 82.127 62.1457 82.127 62.0556 82.1721C61.9656 82.1721 61.9206 82.2172 61.8756 82.2623V82.3074H61.7855C61.7405 82.3526 61.6505 82.4428 61.6505 82.4879C61.6054 82.4879 61.6054 82.533 61.6054 82.5782H61.5604V82.6233C61.4704 82.6233 61.4703 82.6233 61.4253 82.6684L61.3353 82.8038C61.2452 82.9391 61.1102 83.0745 60.9751 83.1647L60.75 83.3903H60.705C60.6599 83.4806 60.5699 83.5708 60.4798 83.6611C60.4348 83.6611 60.3898 83.7062 60.3448 83.7513ZM58.4989 83.8415C58.5439 83.8415 58.5439 83.8867 58.6339 83.8867C58.9941 83.9769 59.1292 83.7964 59.3093 83.6159L60.6599 82.2172C60.705 82.1721 60.75 82.127 60.795 82.0818C60.9751 81.9465 61.1552 81.8111 61.1552 81.5404C61.1102 81.3599 61.0651 81.2245 60.9751 81.1343C60.8851 81.0441 60.8401 80.9989 60.75 80.9989C60.66 80.9538 60.6149 80.9538 60.5249 80.9538C60.4799 80.9538 60.4348 80.9989 60.3898 80.9989L60.3448 81.0441H60.2997L60.2547 81.0892C60.1197 81.1343 60.1197 81.1794 60.0747 81.2245L59.9396 81.3599C59.8946 81.405 59.8495 81.4501 59.8045 81.4953C59.8045 81.5404 59.7145 81.5855 59.7145 81.6306C59.6244 81.6306 59.5794 81.6757 59.5344 81.766L59.3093 81.9465C59.3093 81.9916 59.3093 81.9916 59.2642 82.0367V82.0818L59.1742 82.127L59.1292 82.1721C59.0842 82.2172 59.0841 82.2172 59.0841 82.2623H59.0391C58.9941 82.3074 58.9491 82.3074 58.9491 82.3526C58.9491 82.3526 58.904 82.3977 58.904 82.4428L58.859 82.4879H58.814C58.814 82.4879 58.769 82.4879 58.769 82.533C58.724 82.5782 58.7239 82.5782 58.7239 82.6233L58.6789 82.6684L58.5889 82.7135C58.5439 82.7586 58.4538 82.8038 58.4088 82.894C58.3638 82.9391 58.3187 82.9843 58.2737 83.1196L58.2287 83.1647C58.2287 83.1647 58.1837 83.255 58.1837 83.3452C58.1837 83.4355 58.2287 83.4806 58.2287 83.5257H58.2737V83.5708C58.3187 83.6611 58.3187 83.7062 58.3638 83.7513H58.4088C58.4538 83.7964 58.4989 83.8415 58.4989 83.8415ZM57.1932 82.6233C57.3283 82.6233 57.4633 82.5782 57.5083 82.533V82.4879H57.5533C57.7334 82.3977 57.8685 82.2623 58.0036 82.127L58.0936 81.9916L58.2287 81.8562C58.3638 81.7209 58.5889 81.5404 58.6339 81.4501V81.405C58.6339 80.9989 58.6339 80.6831 58.4088 80.4575C57.9135 80.0514 57.4633 80.5477 57.0581 80.9989L56.833 81.2245L56.6979 81.3148C56.5178 81.4953 56.3377 81.6758 56.2927 81.9916C56.3377 82.1721 56.3827 82.2623 56.4278 82.3977C56.5178 82.4879 56.6079 82.533 56.743 82.5782C56.833 82.6233 57.0131 82.6233 57.1932 82.6233ZM70.7001 78.1563C70.7001 78.1563 70.6551 78.1563 70.7001 78.1563V78.1563Z" fill="#EF7F1A"/>
</svg>
