<svg width="90" height="83" viewBox="0 0 90 83" fill="none" xmlns="http://www.w3.org/2000/svg">
<path fill-rule="evenodd" clip-rule="evenodd" d="M69.404 20H81.088C85.412 20 89 23.5026 89 27.7784V63.35C89 67.6258 85.412 71.1739 81.088 71.1739H72.44C72.44 71.1739 73.728 78.8158 65.448 82C69.22 75.7682 60.618 71.1739 60.618 71.1739H27.912C23.542 71.1739 20 67.6258 20 63.35V60.8936C20.966 61.8034 22.254 62.6222 23.91 63.3045C20.138 57.0726 28.786 52.4329 28.786 52.4329H61.492C65.816 52.4329 69.404 48.9303 69.404 44.609V20V20Z" stroke="#EF7F1A" stroke-miterlimit="22.9256" stroke-linecap="round" stroke-linejoin="round"/>
<path fill-rule="evenodd" clip-rule="evenodd" d="M62.088 1H8.91201C4.54201 1 1 4.54545 1 8.81818V44.3182C1 48.6364 4.54201 52.1364 8.91201 52.1364H17.514C17.514 52.1364 16.272 59.7727 24.506 63C20.734 56.7727 29.382 52.1364 29.382 52.1364H62.088C66.412 52.1364 70 48.6364 70 44.3182V8.81818C70 4.54545 66.412 1 62.088 1V1Z" stroke="#EF7F1A" stroke-miterlimit="22.9256" stroke-linecap="round" stroke-linejoin="round"/>
<path d="M53.7538 33H50.2461C49.5579 33 49 33.5666 49 34.2656V43.7344C49 44.4334 49.5579 45 50.2461 45H53.7538C54.4421 45 55 44.4334 55 43.7344V34.2656C55 33.5666 54.4421 33 53.7538 33Z" stroke="#EF7F1A" stroke-miterlimit="22.9256"/>
<path d="M49 34.1866C47.662 33.1367 46.2794 32.0411 45.4766 31.1738C44.6292 30.2608 44.317 29.5305 44.0494 28.8001C43.7818 28.0241 43.5142 27.2481 43.3804 26.5634C43.2466 25.833 43.202 25.1939 43.1574 24.7374C43.0682 24.3266 42.9344 24.144 42.6222 24.0527C42.3546 23.9614 41.9532 24.0071 41.5964 24.0527C41.2396 24.144 40.9274 24.2353 40.7044 24.6461C40.4814 25.0113 40.303 25.6504 40.2138 26.5177C40.1246 27.385 40.1692 28.3893 40.2584 29.3935C40.3476 30.3521 40.4814 31.2651 40.749 31.8129C40.972 32.4063 41.2396 32.6802 41.3288 32.8628C41.3734 32.9997 41.195 32.9997 39.9462 32.9997C38.6974 32.9997 36.4228 32.9997 35.2186 33.0454C33.9698 33.091 33.836 33.1823 33.613 33.4106C33.4346 33.6388 33.167 34.004 33.0778 34.3692C32.944 34.7344 32.9886 35.0539 33.167 35.4191C33.3454 35.7843 33.7468 36.1495 33.8806 36.332C34.0144 36.5603 33.9698 36.5603 33.8806 36.6972C33.7914 36.7885 33.6576 37.0168 33.613 37.2907C33.5684 37.5645 33.613 37.9297 33.7468 38.2493C33.9252 38.5688 34.1928 38.8883 34.4158 39.0709C34.5942 39.2535 34.728 39.3448 34.7726 39.3905C34.7726 39.4361 34.728 39.4818 34.5942 39.71C34.505 39.8926 34.3712 40.2578 34.3712 40.623C34.3712 41.0338 34.5496 41.4446 34.8172 41.7642C35.1294 42.0837 35.5754 42.3119 35.7538 42.4489C35.9768 42.5858 35.8876 42.5858 35.7984 42.7228C35.7538 42.8141 35.62 42.9967 35.6646 43.3162C35.7092 43.5901 35.8876 44.0009 36.1552 44.3205C36.4228 44.64 36.7796 44.8682 38.3406 44.9595C39.9016 45.0508 42.6222 45.0052 44.5846 44.64C46.5916 44.3205 47.7958 43.727 49 43.1336" stroke="#EF7F1A" stroke-miterlimit="22.9256"/>
<path fill-rule="evenodd" clip-rule="evenodd" d="M11 37.5L12.2844 36.5789L12.8808 35L14.211 35.8772L16 35.9649L15.5413 37.4561L16 39.0789L14.3487 39.1228L12.8808 40L12.3762 38.5526L11 37.5Z" stroke="#EF7F1A" stroke-miterlimit="22.9256" stroke-linecap="round" stroke-linejoin="round"/>
<path fill-rule="evenodd" clip-rule="evenodd" d="M11 27.5L12.2844 26.5789L12.8808 25L14.211 25.8772L16 25.9649L15.5413 27.4561L16 29.0789H14.3487L12.8808 30L12.3762 28.5526L11 27.5Z" stroke="#EF7F1A" stroke-miterlimit="22.9256" stroke-linecap="round" stroke-linejoin="round"/>
<path fill-rule="evenodd" clip-rule="evenodd" d="M11 17.5217L12.2844 16.5652L12.8808 15L14.211 15.8696L16 15.9565L15.5413 17.4348L16 19.0435L14.3487 19.087L12.8808 20L12.3762 18.5652L11 17.5217Z" stroke="#EF7F1A" stroke-miterlimit="22.9256" stroke-linecap="round" stroke-linejoin="round"/>
<path fill-rule="evenodd" clip-rule="evenodd" d="M19 33.4783L20.2844 32.5652L20.9266 31L22.2569 31.8696L24 31.9565L23.5413 33.4348L24 35.0435L22.3945 35.087L20.9266 36L20.3762 34.5652L19 33.4783Z" stroke="#EF7F1A" stroke-miterlimit="22.9256" stroke-linecap="round" stroke-linejoin="round"/>
<path fill-rule="evenodd" clip-rule="evenodd" d="M19 22.5L20.2844 21.5789L20.9266 20L22.2569 20.8772L24 20.9649L23.5413 22.4561L24 24.0789H22.3945L20.9266 25L20.3762 23.5526L19 22.5Z" stroke="#EF7F1A" stroke-miterlimit="22.9256" stroke-linecap="round" stroke-linejoin="round"/>
<path d="M32 63H55" stroke="#EF7F1A" stroke-miterlimit="22.9256" stroke-linecap="round" stroke-linejoin="round"/>
<path d="M65 63H81" stroke="#EF7F1A" stroke-miterlimit="22.9256" stroke-linecap="round" stroke-linejoin="round"/>
<path d="M31.2283 15.9421L33.2831 15.7104C33.3288 16.1274 33.4657 16.4517 33.694 16.6371C33.9224 16.8687 34.1963 16.9614 34.516 16.9614C34.9726 16.9614 35.3379 16.7297 35.6575 16.3591C35.9772 15.9421 36.1598 15.0618 36.2511 13.7645C35.7032 14.4131 35.0183 14.6911 34.1963 14.6911C33.3288 14.6911 32.5982 14.3668 31.9589 13.6718C31.3196 12.9768 31 12.0965 31 10.9846C31 9.82625 31.3196 8.89961 32.0046 8.20463C32.6895 7.50965 33.5114 7.139 34.5616 7.139C35.7032 7.139 36.6164 7.60232 37.347 8.48263C38.0776 9.36293 38.4429 10.8456 38.4429 12.8842C38.4429 14.9691 38.0776 16.4517 37.3014 17.3784C36.5708 18.305 35.5662 18.7683 34.379 18.7683C33.5114 18.7683 32.7808 18.5367 32.2785 18.0734C31.7306 17.5637 31.3653 16.8687 31.2283 15.9421ZM36.0685 11.1699C36.0685 10.4749 35.8858 9.91892 35.5662 9.54826C35.2466 9.13127 34.8813 8.94595 34.4703 8.94595C34.0594 8.94595 33.7397 9.13127 33.5114 9.4556C33.2374 9.73359 33.1005 10.2896 33.1005 10.9846C33.1005 11.7259 33.2374 12.2355 33.5114 12.6062C33.7854 12.9305 34.1507 13.1158 34.6073 13.1158C35.0183 13.1158 35.3379 12.9305 35.6119 12.6062C35.8859 12.2819 36.0685 11.8185 36.0685 11.1699ZM39.9041 15.9421L42.0045 15.7104C42.0502 16.1274 42.1872 16.4517 42.3699 16.6371C42.5982 16.8687 42.8721 16.9614 43.2374 16.9614C43.6484 16.9614 44.0137 16.7297 44.3333 16.3591C44.653 15.9421 44.8356 15.0618 44.9269 13.7645C44.379 14.4131 43.6941 14.6911 42.9178 14.6911C42.0046 14.6911 41.274 14.3668 40.6347 13.6718C39.9954 12.9768 39.6758 12.0965 39.6758 10.9846C39.6758 9.82625 39.9954 8.89961 40.6803 8.20463C41.3653 7.50965 42.2329 7.139 43.2374 7.139C44.379 7.139 45.3379 7.60232 46.0685 8.48263C46.7534 9.36293 47.1187 10.8456 47.1187 12.8842C47.1187 14.9691 46.7534 16.4517 46.0228 17.3784C45.2466 18.305 44.2877 18.7683 43.0548 18.7683C42.1872 18.7683 41.5023 18.5367 40.9543 18.0734C40.4064 17.5637 40.0411 16.8687 39.9041 15.9421ZM44.7443 11.1699C44.7443 10.4749 44.5617 9.91892 44.242 9.54826C43.9224 9.13127 43.5571 8.94595 43.1461 8.94595C42.7808 8.94595 42.4155 9.13127 42.1872 9.4556C41.9132 9.73359 41.7763 10.2896 41.7763 10.9846C41.7763 11.7259 41.9132 12.2355 42.1872 12.6062C42.5068 12.9305 42.8265 13.1158 43.2831 13.1158C43.694 13.1158 44.0137 12.9305 44.3333 12.6062C44.6073 12.2819 44.7443 11.8185 44.7443 11.1699ZM48.5342 10.0116C48.5342 8.99228 48.7625 8.25096 49.1735 7.74131C49.6301 7.27799 50.2237 7 51 7C51.7762 7 52.3699 7.23166 52.8265 7.74131C53.2374 8.20463 53.4657 8.99228 53.4657 10.0116C53.4657 11.0309 53.2374 11.7722 52.8265 12.2355C52.3699 12.7452 51.7762 12.9768 51 12.9768C50.2237 12.9768 49.6301 12.7452 49.1735 12.2355C48.7625 11.7722 48.5342 11.0309 48.5342 10.0116ZM50.2237 10.0116C50.2237 10.7066 50.2694 11.2162 50.4521 11.4479C50.5891 11.6332 50.7717 11.7259 51 11.7259C51.2283 11.7259 51.4109 11.6332 51.5023 11.4479C51.6849 11.2162 51.7762 10.7066 51.7762 10.0116C51.7762 9.27027 51.6849 8.76062 51.5023 8.52896C51.4109 8.34363 51.2283 8.25097 51 8.25097C50.7717 8.25097 50.5891 8.34363 50.4521 8.52896C50.2694 8.76062 50.2237 9.27027 50.2237 10.0116ZM52.5982 19H51.0457L56.9817 7H58.5342L52.5982 19ZM56.0685 16.0347C56.0685 15.0154 56.2968 14.2278 56.7534 13.7645C57.1644 13.2548 57.758 13.0232 58.5342 13.0232C59.3105 13.0232 59.9041 13.2548 60.3607 13.7645C60.7717 14.2278 61 15.0154 61 16.0347C61 17.0541 60.7717 17.7954 60.3607 18.305C59.9041 18.7683 59.3105 19 58.5799 19C57.758 19 57.1644 18.7683 56.7534 18.305C56.2968 17.7954 56.0685 17.0541 56.0685 16.0347ZM57.758 16.0347C57.758 16.7761 57.8493 17.2394 57.9863 17.5174C58.1233 17.7027 58.3059 17.7954 58.5342 17.7954C58.7626 17.7954 58.9452 17.7027 59.0365 17.5174C59.2192 17.2394 59.3105 16.7761 59.3105 16.0347C59.3105 15.2934 59.2192 14.7838 59.0822 14.5521C58.9452 14.3205 58.7626 14.2278 58.5342 14.2278C58.3059 14.2278 58.1233 14.3205 57.9863 14.5521C57.8493 14.7838 57.758 15.2934 57.758 16.0347Z" fill="#EF7F1A"/>
<path d="M32 57H76" stroke="#EF7F1A" stroke-miterlimit="22.9256" stroke-linecap="round" stroke-linejoin="round"/>
<path d="M64 51H80" stroke="#EF7F1A" stroke-miterlimit="22.9256" stroke-linecap="round" stroke-linejoin="round"/>
<path d="M69 46H77" stroke="#EF7F1A" stroke-miterlimit="22.9256" stroke-linecap="round" stroke-linejoin="round"/>
<path d="M69 40H82" stroke="#EF7F1A" stroke-miterlimit="22.9256" stroke-linecap="round" stroke-linejoin="round"/>
<path d="M69 33H76" stroke="#EF7F1A" stroke-miterlimit="22.9256" stroke-linecap="round" stroke-linejoin="round"/>
</svg>
