<svg width="114" height="80" viewBox="0 0 114 80" fill="none" xmlns="http://www.w3.org/2000/svg">
<path d="M23.3113 0H107.689C108.412 0 109 0.453416 109 1.04286V71.9572C109 72.5466 108.412 73 107.689 73H23.3113C22.5878 73 22 72.5466 22 71.9572V60.6671H24.6227V70.9596H106.377V2.08571H24.6227V39.2658H22V1.04286C22 0.453416 22.5878 0 23.3113 0Z" fill="#EF7F1A"/>
<path fill-rule="evenodd" clip-rule="evenodd" d="M30 8H59V64H30V59.9518H43.3364C45.7083 59.9518 47.6327 57.9727 47.6327 55.5888V43.0843C47.6327 40.7004 45.7083 38.7213 43.3364 38.7213H30V8V8Z" stroke="#EF7F1A" stroke-miterlimit="22.9256" stroke-linecap="round" stroke-linejoin="round"/>
<path fill-rule="evenodd" clip-rule="evenodd" d="M62 7H102V67H62V7ZM64.7633 9.77693H99.1914V64.2686H64.7633V36.7269H63.9479C63.359 36.7269 62.906 36.2716 62.906 35.7253C62.906 35.1791 63.359 34.7238 63.9479 34.7238H64.7633V9.77693V9.77693Z" stroke="#EF7F1A" stroke-miterlimit="22.9256" stroke-linecap="round" stroke-linejoin="round"/>
<path d="M113 72H19V79H113V72Z" stroke="#EF7F1A" stroke-miterlimit="22.9256" stroke-linecap="round" stroke-linejoin="round"/>
<path d="M68.9595 34H64.0405C63.4659 34 63 34.4477 63 35C63 35.5523 63.4659 36 64.0405 36H68.9595C69.5341 36 70 35.5523 70 35C70 34.4477 69.5341 34 68.9595 34Z" stroke="#EF7F1A" stroke-miterlimit="22.9256" stroke-linecap="round" stroke-linejoin="round"/>
<path fill-rule="evenodd" clip-rule="evenodd" d="M11.9018 39H43.6574C46.0549 39 48 40.9576 48 43.3157V55.6843C48 58.0424 46.0549 60 43.6574 60H11.9018C9.91145 60 8.1925 58.6208 7.69491 56.7966C3.94033 56.4407 1 53.3708 1 49.6335C1 45.8962 3.8951 42.8263 7.64967 42.4258C8.05679 40.5127 9.82098 39 11.9018 39V39Z" stroke="#EF7F1A" stroke-miterlimit="22.9256"/>
<path d="M7.5 52C8.88072 52 10 50.8807 10 49.5C10 48.1193 8.88072 47 7.5 47C6.11929 47 5 48.1193 5 49.5C5 50.8807 6.11929 52 7.5 52Z" stroke="#EF7F1A" stroke-miterlimit="22.9256"/>
<path d="M36 49H32V57H36V49Z" stroke="#EF7F1A" stroke-miterlimit="22.9256"/>
<path d="M32 49.8185C31.0733 49.0835 30.1465 48.3946 29.5905 47.7974C28.9881 47.2003 28.8028 46.695 28.6174 46.1898C28.4321 45.6845 28.2467 45.1793 28.1541 44.7199C28.0614 44.2147 28.0614 43.8013 27.9687 43.5257C27.9224 43.2501 27.8297 43.1123 27.6444 43.0204C27.459 42.9745 27.1347 43.0204 26.903 43.0204C26.6713 43.0663 26.486 43.1582 26.3006 43.4338C26.1616 43.6635 26.0226 44.1228 25.9763 44.674C25.9299 45.2711 25.9299 45.9601 25.9763 46.6032C26.0689 47.2462 26.1616 47.8434 26.3006 48.2108C26.486 48.6242 26.6713 48.8079 26.7176 48.8998C26.764 48.9917 26.625 48.9917 25.7909 48.9917C24.9569 48.9917 23.3814 48.9917 22.501 49.0376C21.667 49.0376 21.5743 49.1295 21.4353 49.2673C21.2963 49.451 21.1109 49.6807 21.0646 49.9103C20.9719 50.14 20.9719 50.3697 21.1109 50.5993C21.2499 50.8749 21.528 51.1046 21.6206 51.2424C21.7133 51.3802 21.667 51.3802 21.6206 51.4721C21.528 51.518 21.4816 51.6558 21.4353 51.8395C21.3889 52.0692 21.4353 52.2988 21.5279 52.5285C21.6206 52.7122 21.806 52.9419 21.945 53.0338C22.1303 53.1716 22.223 53.2175 22.223 53.2634C22.223 53.3094 22.1767 53.3553 22.1303 53.4472C22.0377 53.585 21.945 53.8146 21.945 54.0902C21.945 54.3658 22.084 54.6414 22.2693 54.8251C22.501 55.0548 22.779 55.1926 22.9181 55.2845C23.0571 55.3763 23.0107 55.3763 22.9644 55.4682C22.8717 55.5601 22.8254 55.6519 22.8717 55.8816C22.8717 56.0653 23.0107 56.3409 23.1961 56.5706C23.3814 56.7543 23.6131 56.8921 24.6788 56.984C25.7446 57.0299 27.6444 56.984 28.9881 56.7543C30.3319 56.5706 31.1659 56.1572 32 55.7438" stroke="#EF7F1A" stroke-miterlimit="22.9256"/>
<path d="M8.5584 52.2432C8.6492 51.4816 8.78539 50.6752 8.14982 50.272C7.55964 49.8688 6.2431 49.824 4.92655 50.7648C3.5646 51.7056 2.20265 53.5872 2.02106 55.6928C1.83946 57.7984 2.83823 60.128 4.79035 61.7856C6.74248 63.4432 9.69335 64.4736 12.0541 65.3696C14.4602 66.2656 16.3669 67.0272 17.4565 68.1024C18.5006 69.1776 18.773 70.6112 19 72" stroke="#EF7F1A" stroke-miterlimit="22.9256"/>
<path d="M12 61C13.3257 62.6809 14.6072 64.4086 15.8003 65.6693C16.9492 66.9767 18.0097 67.8638 18.54 68.9844C19.0261 70.1518 19.0261 71.5992 18.9819 73" stroke="#EF7F1A" stroke-miterlimit="22.9256"/>
</svg>
