<svg width="89" height="81" viewBox="0 0 89 81" fill="none" xmlns="http://www.w3.org/2000/svg">
<path d="M79.7208 1H9.27918C4.70672 1 1 4.99794 1 9.92964V71.0704C1 76.0021 4.70672 80 9.27918 80H79.7208C84.2933 80 88 76.0021 88 71.0704V9.92964C88 4.99794 84.2933 1 79.7208 1Z" stroke="#EF7F1A" stroke-miterlimit="22.9256"/>
<path fill-rule="evenodd" clip-rule="evenodd" d="M17.6462 57.8762H21.3487L21.5316 58.8816C20.3888 58.516 18.8804 58.7445 17.6462 58.7445V57.8762ZM46.9919 23.9233L46.9462 23.8319C47.2205 22.7351 47.3119 22.1868 47.769 21.09C48.5918 18.8966 50.8315 16.4289 53.0713 15.6064L51.7915 24.1061C52.2485 24.2888 52.7971 24.3345 53.2085 24.5173C53.5741 23.7862 55.0368 13.0474 55.3568 12.4533C55.8139 11.585 56.4081 11.585 57.6423 11.585C58.0994 11.585 58.6022 11.5393 59.0136 11.6764C59.6992 11.8592 59.2879 11.7221 59.4707 11.9506C60.4306 12.8646 61.8933 23.2378 62.579 24.6087C62.9903 24.3802 63.5389 24.3802 63.996 24.1974C63.9045 23.0093 62.4418 16.7945 62.3504 15.6064C62.579 15.6978 63.4932 16.2462 63.5389 16.2918C63.5846 16.2918 63.6303 16.2918 63.6303 16.3375C63.676 16.3375 63.676 16.3832 63.7217 16.3832C63.7674 16.3832 63.7674 16.4289 63.8131 16.4289C63.8131 16.4746 63.8588 16.4746 63.9045 16.5203C65.093 17.4343 65.5958 17.9826 66.51 19.3079C67.607 20.9073 67.8356 21.7298 68.247 23.5577C68.3384 24.1061 68.247 24.4259 68.4755 25.02C69.4811 25.02 70.8067 25.1114 71.0353 26.2995C71.2638 27.7618 70.1668 27.7161 69.344 27.7161H45.9863C45.7121 27.7161 45.3464 27.7161 45.1178 27.6704C44.2493 27.579 43.9751 27.0764 44.2036 26.1624C44.295 25.7055 44.7979 25.2485 45.3007 25.2028L46.7634 24.9743C47.0833 24.6544 46.9919 24.6087 46.9919 23.9233ZM22.0344 60.2982H22.9029C23.0857 59.9326 23.04 60.0697 23.04 59.5213V56.3225H21.8973V53.0323C23.1314 52.9409 23.4971 52.5754 23.8628 52.5754C23.9542 52.4383 24.137 52.3469 24.3199 52.1641C24.5484 51.9813 24.8684 51.6614 25.0055 51.3415C25.0969 51.1587 25.1426 50.976 25.1884 50.8389V49.3309C27.9767 50.7018 31.3592 50.8389 34.1475 49.1938C34.1475 50.0163 33.9646 51.1587 34.5132 51.7985C34.696 52.027 34.9703 52.2555 35.1531 52.3926C35.1988 52.4383 35.1988 52.484 35.2445 52.484H35.2902C35.1531 52.9866 35.1074 52.8038 34.8331 53.3065C34.376 54.2205 34.1475 55.3629 34.1475 56.4596C34.1475 58.2418 34.1475 59.9783 34.1475 61.7148H21.8973L22.0344 60.2982ZM67.0585 55.1801H72.2237C72.178 55.9112 72.1323 55.9112 72.3151 56.5967C71.0353 56.2311 68.5212 56.4596 67.0585 56.4596V55.1801ZM42.9695 55.1801H48.089V56.4596H43.1523C42.9238 55.9112 42.9695 55.8199 42.9695 55.1801ZM18.9261 54.1748V53.9006C19.2461 53.7178 19.886 53.5807 20.3431 53.6264C20.3431 54.5403 20.206 55.5914 20.4803 56.4596C19.7489 56.2768 19.6118 56.3225 18.9261 56.3225V54.1748ZM68.6127 49.7878C69.2069 50.062 70.0297 50.062 70.6239 50.3362V53.6264H68.7498C68.3384 52.5754 68.6127 50.9303 68.6127 49.7878ZM48.089 49.468C48.7289 49.1938 51.6086 48.5997 51.9286 48.1884C52.0657 47.9599 52.1114 47.4573 52.1114 47.3202V47.2745V47.2288V44.8068C53.437 45.081 53.9855 46.0407 57.9166 46.0864C59.2879 46.0864 60.0192 45.9036 61.0248 45.5837C61.5276 45.4009 61.8019 45.3552 62.259 45.1267C62.7618 44.8525 63.0818 44.6241 63.4932 44.6241V46.9089C63.4932 47.0003 63.4932 47.0917 63.5389 47.1374C63.5389 47.503 63.6303 47.7772 63.8131 48.0056C63.9503 48.2798 64.2245 48.4626 64.4073 48.554C64.4988 48.5997 64.5445 48.6454 64.5902 48.6911C64.9559 48.8282 65.5501 48.9653 65.6872 49.011C66.19 49.1481 66.6014 49.2395 67.0585 49.3309V53.6264C65.1387 53.6264 65.4587 52.9409 65.4587 57.602C65.4587 58.3332 66.2815 57.8762 67.0585 58.1504L67.1956 60.1611H48.089V58.0133H49.506C49.506 52.7125 50.0088 53.6264 48.089 53.6264V49.468ZM44.5236 50.3362C45.3464 50.2905 45.7578 49.9249 46.5348 49.9249C46.5348 51.1587 46.352 52.5754 46.672 53.7635C45.8949 53.535 45.3464 53.6264 44.5236 53.6264V50.3362ZM21.7601 40.9226L21.623 36.8099H37.3015C37.3015 40.9683 37.85 43.9386 34.8788 46.8175C32.5476 49.1024 28.0681 49.468 25.6455 47.8686C24.1827 46.9089 25.0512 47.503 23.9999 46.5433C23.8171 46.3605 23.7714 46.2692 23.5885 46.0864L22.4001 44.2585C21.9887 43.2074 21.7601 42.3849 21.7601 40.9226ZM48.089 35.8045V29.544C54.4883 29.544 60.842 29.544 67.1956 29.544C66.5557 32.2858 69.6183 41.1511 60.4306 44.1671C59.1507 44.5784 57.0938 44.6241 55.6768 44.3956C55.6311 44.3956 55.4482 44.3499 55.4025 44.3499C55.3568 44.3499 55.3111 44.3499 55.3111 44.3042C54.1684 44.0757 53.2085 43.5273 52.2943 43.0247C51.4258 42.522 51.7457 42.522 51.1972 42.1564C50.5116 41.6537 50.7858 41.8365 50.283 41.1968C50.1459 41.0597 50.1002 41.014 49.9631 40.8312C48.9574 39.5974 48.089 37.541 48.089 35.8045ZM33.7361 25.5684C34.6503 25.9796 35.2445 26.6194 35.9759 27.3049C37.4386 28.6758 38.2614 30.9606 38.2614 33.0627C40.4097 33.0627 40.4097 33.1998 40.4097 34.6621C39.3127 35.4389 36.3873 35.1191 34.8331 35.1191C32.5933 35.1191 25.1884 35.2105 21.5773 35.1648H19.4746C18.9261 35.1648 18.5147 34.7078 18.5147 34.2051C18.5147 33.9309 18.6062 33.7024 18.7433 33.5654V33.5197H18.789C18.9261 33.3369 19.2004 33.2455 19.4289 33.2455L19.4746 33.1998C19.6575 33.1084 19.886 33.017 20.1146 32.8799C20.3431 32.7428 20.4803 32.56 20.6174 32.3772C20.7088 32.1944 20.8002 32.0117 20.8916 31.8289C20.9374 31.6918 20.9831 31.5547 21.0745 31.3262C21.0745 31.1434 21.1202 31.0063 21.1659 30.8235C21.4859 29.7268 21.8058 28.9499 22.4915 28.036C23.6799 26.4823 23.9999 26.3909 25.4626 25.4313C25.4169 26.4366 24.4113 31.3719 24.4113 32.3772C24.9598 32.4229 25.2798 32.6057 25.8283 32.6514L27.3824 24.2431C28.0224 21.7298 27.7938 22.004 30.7192 22.004C31.1763 22.6437 31.2678 22.3696 31.4963 23.3749C31.7706 24.4259 33.2333 32.3315 33.279 32.9713C33.8732 32.9256 34.1475 32.6971 34.8331 32.6971C34.6503 31.9203 33.7361 26.4366 33.7361 25.5684ZM53.5284 13.7328C50.5116 14.464 47.6776 17.48 46.3977 20.3132C46.1692 20.7702 45.9863 21.4556 45.8035 22.004C45.6206 22.5524 45.5292 23.2378 45.3921 23.8319C42.9238 23.8319 41.7353 26.8936 43.4723 28.5387C44.3408 29.3612 45.1178 29.2698 46.5348 29.2698C46.5348 34.3879 45.8949 38.6834 49.2774 42.4763C49.5517 42.7505 50.1002 43.3445 50.5116 43.4816V47.1831L46.1692 48.3712C46.0777 48.3712 45.5292 48.5083 45.255 48.5997C42.8323 49.1938 40.364 49.7878 38.0785 50.519C37.4386 50.7475 37.1186 51.0217 36.5701 51.3415C36.2958 51.2044 36.0673 51.113 35.7016 51.0674V48.0513C36.4787 47.5487 37.3929 46.3148 37.85 45.3552C39.1756 42.6134 38.8556 39.6431 38.8556 36.5357C39.7698 36.5357 40.6383 36.5357 41.3239 35.8959C42.7409 34.525 41.8267 31.8746 39.6784 31.8289C39.6784 30.3666 38.9927 28.9043 38.2614 27.7618L37.3015 26.3909C36.9358 25.8882 36.3873 25.5227 35.8844 25.1114C35.2902 24.563 34.5132 24.1974 33.7818 23.8319C33.7361 23.8319 33.6904 23.7862 33.6447 23.7862C32.2734 23.055 33.1876 20.4503 30.0336 20.4503C28.5709 20.4503 27.9309 20.3589 27.1082 21.09C26.4682 21.6841 26.0568 22.461 26.0111 23.5577C24.4113 23.9233 22.5829 25.477 21.6687 26.5737C20.4803 27.9903 19.9317 29.544 19.4746 31.2805C19.3832 31.7375 19.3832 31.6918 18.9718 31.8746C17.8748 32.2401 17.052 32.8799 17.052 34.2508C17.052 34.7535 17.1434 34.9363 17.3263 35.2561C18.1948 36.8555 18.789 36.1244 20.206 36.6728C20.206 40.2828 19.8403 43.5273 21.8058 46.3148L23.0857 47.8686C23.1314 47.9143 23.1314 47.9142 23.1771 47.9599L23.5885 48.3255V51.0674L19.4289 52.1184C18.5604 52.3926 18.2405 52.4383 17.2806 52.7125C14.6751 53.3522 11.4297 53.7635 10.4241 56.6881C9.78416 58.6531 10.0584 77.1147 10.0584 79.491H11.6583V58.6074C11.6583 57.8305 11.7954 57.2365 12.1611 56.6881C12.8924 55.5 13.9895 55.1344 15.2693 54.8602C15.9093 54.6774 16.732 54.2661 17.3263 54.4489V56.3225H16.0464C16.0464 60.3896 15.4979 60.2982 17.4634 60.2982C17.2806 60.8922 17.3263 61.075 17.3263 61.7148H15.4979V79.491H17.052V63.1314H18.9261V60.2982H20.3431V63.1314C22.3086 63.1314 33.1876 62.9029 34.1475 63.3142C34.1475 64.0453 34.1475 64.8222 34.1475 65.599C34.1475 67.0156 34.1018 75.8352 34.6503 79.3539C34.8788 80.9076 35.1531 79.1711 35.7016 79.1711V56.3225C35.7016 52.3012 39.1756 51.6614 42.3295 50.976L42.9695 50.8846C42.9695 51.8442 42.878 52.8495 43.1066 53.7635C42.4209 53.5807 42.2838 53.6264 41.5525 53.6264V58.0133H42.9695C42.9695 60.8008 43.518 60.1611 40.684 60.1611V77.6174C40.684 79.4453 40.7297 79.1711 42.2838 79.1711V61.7148C45.255 61.7148 44.5236 62.3545 44.5236 58.0133H46.5348C46.5348 60.2068 46.2149 61.7148 46.9462 61.7148H68.2013C68.9326 61.7148 68.6127 60.0697 68.6127 58.0133C69.2983 58.0133 70.0297 57.9219 70.6239 58.1504V61.7148H72.9094V78.8969C72.9094 79.3996 74.1435 79.1711 74.4635 79.1711V61.3035C74.4635 60.618 74.3721 60.7094 74.3264 60.1611H72.178V58.0133H73.595V53.6264H72.3151C71.9952 52.8495 72.178 51.6614 72.178 50.7475C73.2293 50.8389 74.8749 51.4786 75.9262 51.7071L77.1604 52.2098C78.6688 52.9866 79.4459 54.5403 79.4459 56.3225V79.1711C79.903 79.1711 81 79.4453 81 78.7598V56.4596C81 55.2715 80.8172 54.4489 80.4058 53.535C80.3601 53.4893 80.3144 53.3979 80.3144 53.3522C79.7201 52.1641 78.6231 51.2044 77.4803 50.6104C76.1091 49.9706 74.0521 49.6964 72.5437 49.2395L65.0473 47.1831V43.2074C65.5044 42.979 65.5044 43.0704 65.8701 42.6134C66.0072 42.3849 65.9615 42.4306 66.1443 42.2021C69.4354 38.455 68.7498 34.068 68.7498 29.2698C69.8468 29.2698 70.9896 29.4069 71.858 28.5387C72.818 27.5333 72.9551 25.3399 71.7209 24.4716C71.4009 24.2431 71.1724 24.1061 70.8981 24.0147C70.3953 23.8776 69.8925 23.969 69.7554 23.4206C69.7554 23.2835 69.7097 23.1007 69.7097 22.9179L69.2069 21.1357C69.0697 20.7245 69.024 20.6788 68.8412 20.3589C68.7041 19.9933 68.7041 19.8562 68.5212 19.5363L68.3384 19.3079C67.3328 17.7085 66.2357 16.3832 64.7273 15.2408L64.4531 15.058C64.1788 14.8752 64.4074 15.0123 64.0874 14.8295C63.8131 14.6468 63.676 14.6011 63.4017 14.4183C62.8075 14.0527 62.3961 13.8699 61.7562 13.7328C61.7562 12.4076 61.2077 11.4023 60.3392 10.6711C60.2935 10.6711 60.2478 10.6254 60.2478 10.5797C59.1964 9.80286 57.5966 10.0313 56.3624 10.0313C54.6712 10.0313 53.5284 12.2248 53.5284 13.7328Z" fill="#EF7F1A"/>
<path fill-rule="evenodd" clip-rule="evenodd" d="M26.5494 66H35V79H26.5494C25.133 79 24 77.8908 24 76.6041V68.3515C24 67.0648 25.133 66 26.5494 66V66Z" stroke="#EF7F1A" stroke-miterlimit="22.9256" stroke-linecap="round" stroke-linejoin="round"/>
<path d="M64.317 66H51.683C49.6489 66 48 67.0528 48 68.3515V76.6485C48 77.9472 49.6489 79 51.683 79H64.317C66.3511 79 68 77.9472 68 76.6485V68.3515C68 67.0528 66.3511 66 64.317 66Z" stroke="#EF7F1A" stroke-miterlimit="22.9256" stroke-linecap="round" stroke-linejoin="round"/>
<path d="M20 33L39 33.0454" stroke="#EF7F1A" stroke-miterlimit="22.9256" stroke-linecap="round" stroke-linejoin="round"/>
<path d="M47 25L70 25.0454" stroke="#EF7F1A" stroke-miterlimit="22.9256"/>
<path d="M24 52C24.8327 53.2 25.6653 54.4 26.5857 55.35C27.5498 56.3 28.6454 56.95 29.6972 57C30.7928 57 31.8884 56.4 32.7649 55.5C33.6414 54.6 34.2988 53.4 35 52.25" stroke="#EF7F1A" stroke-miterlimit="22.9256" stroke-linecap="round" stroke-linejoin="round"/>
<path d="M52 48C52.9512 49.4516 53.9477 50.9032 55.0801 52.0161C56.2125 53.129 57.4808 53.9516 58.7491 54C60.0627 54 61.331 53.2742 62.3728 52.1613C63.4146 51.0968 64.23 49.6935 65 48.2903" stroke="#EF7F1A" stroke-miterlimit="22.9256" stroke-linecap="round" stroke-linejoin="round"/>
</svg>
