<svg width="83" height="100" viewBox="0 0 83 100" fill="none" xmlns="http://www.w3.org/2000/svg">
<path fill-rule="evenodd" clip-rule="evenodd" d="M1 7H17.4557V10.9545H48.9043V7H65.9086L66 57.0455L63.303 54.5909L60.2862 57.1818L56.7665 55.7273L54.8467 59.1818L51.007 59L50.4128 62.9091L46.7559 64.0455L47.533 67.9091L44.5161 70.2273L46.5731 73.6364L44.5161 76.8182L47.6245 79.3182L47.2131 80.9545H46.3903V81H1V80.9545V19.4091V7Z" stroke="#EF7F1A" stroke-miterlimit="22.9256" stroke-linecap="round" stroke-linejoin="round"/>
<path fill-rule="evenodd" clip-rule="evenodd" d="M17 3H26.4171V4.37278H37.7268V3H48V11H17V3Z" stroke="#EF7F1A" stroke-miterlimit="22.9256" stroke-linecap="round" stroke-linejoin="round"/>
<path d="M38 1H27V5H38V1Z" stroke="#EF7F1A" stroke-miterlimit="22.9256" stroke-linecap="round" stroke-linejoin="round"/>
<path fill-rule="evenodd" clip-rule="evenodd" d="M17.1491 16H58.9539V32.2922H59V56.254L57.2504 55.5279L55.3167 58.9769L51.4493 58.7954L50.8508 62.6983L47.1676 63.8328L47.9502 67.6903L44.9115 70.0048L46.7071 72.9092H45.2339L45.1878 73H9V22.8073L17.1491 16Z" stroke="#EF7F1A" stroke-miterlimit="22.9256" stroke-linecap="round" stroke-linejoin="round"/>
<path fill-rule="evenodd" clip-rule="evenodd" d="M17 16L9 23L17 22.8618V16Z" stroke="#EF7F1A" stroke-miterlimit="22.9256" stroke-linecap="round" stroke-linejoin="round"/>
<path d="M23 30H15V38H23V30Z" stroke="#EF7F1A" stroke-miterlimit="22.9256" stroke-linecap="round" stroke-linejoin="round"/>
<path d="M23 44H15V52H23V44Z" stroke="#EF7F1A" stroke-miterlimit="22.9256" stroke-linecap="round" stroke-linejoin="round"/>
<path d="M23 58H15V66H23V58Z" stroke="#EF7F1A" stroke-miterlimit="22.9256" stroke-linecap="round" stroke-linejoin="round"/>
<path d="M28 32H53" stroke="#EF7F1A" stroke-miterlimit="22.9256" stroke-linecap="round" stroke-linejoin="round"/>
<path d="M28 35H43" stroke="#EF7F1A" stroke-miterlimit="22.9256" stroke-linecap="round" stroke-linejoin="round"/>
<path d="M28 47H53" stroke="#EF7F1A" stroke-miterlimit="22.9256" stroke-linecap="round" stroke-linejoin="round"/>
<path d="M28 50H43" stroke="#EF7F1A" stroke-miterlimit="22.9256" stroke-linecap="round" stroke-linejoin="round"/>
<path d="M28 61H50" stroke="#EF7F1A" stroke-miterlimit="22.9256" stroke-linecap="round" stroke-linejoin="round"/>
<path d="M28 64H43" stroke="#EF7F1A" stroke-miterlimit="22.9256" stroke-linecap="round" stroke-linejoin="round"/>
<path d="M17 32.8526L19.1296 35L22 31" stroke="#EF7F1A" stroke-miterlimit="22.9256" stroke-linecap="round" stroke-linejoin="round"/>
<path d="M17 47.875L19.1296 50L22 46" stroke="#EF7F1A" stroke-miterlimit="22.9256" stroke-linecap="round" stroke-linejoin="round"/>
<path d="M17 61.8333L19.1296 64L22 60" stroke="#EF7F1A" stroke-miterlimit="22.9256" stroke-linecap="round" stroke-linejoin="round"/>
<path fill-rule="evenodd" clip-rule="evenodd" d="M63.5 60L65.5067 61.8419L68.152 60.8086L69.429 63.2346L72.3024 63.1448L72.6672 65.8403L75.3581 66.7388L74.7652 69.3893L77 71.1864L75.4949 73.4326L77 75.8586L74.8108 77.5208L75.3581 80.2612L72.7128 81.0699L72.3024 83.8552L69.5659 83.7205L68.152 86.1913L65.6436 85.1581L63.5 87L61.4476 85.203L58.8023 86.1913L57.5253 83.8103L54.652 83.8552L54.3328 81.1597L51.5962 80.2612L52.1892 77.6106L50 75.8586L51.4594 73.5674L50 71.1864L52.1436 69.5241L51.5962 66.7388L54.2415 65.9301L54.652 63.1448L57.4341 63.2795L58.8023 60.8086L61.3564 61.8419L63.5 60Z" stroke="#EF7F1A" stroke-miterlimit="22.9256" stroke-linecap="round" stroke-linejoin="round"/>
<path fill-rule="evenodd" clip-rule="evenodd" d="M57 99V91.1198L60.534 89.7373L63.343 92.3641L66.2881 89.7373L69.7767 91.212L71 89V99L63.932 95.8664L57 99Z" stroke="#EF7F1A" stroke-miterlimit="22.9256" stroke-linecap="round" stroke-linejoin="round"/>
<path fill-rule="evenodd" clip-rule="evenodd" d="M63.0231 55L65.8465 57.5516L69.5956 56.1391L71.4007 59.5108L75.4275 59.4197L75.8903 63.2014L79.732 64.4772L78.8989 68.2134L82 70.6739L79.9172 73.9089L82 77.2806L78.9452 79.6043L79.732 83.4772L76.0292 84.6163L75.4275 88.5348L71.5396 88.3525L69.5956 91.8609L66.0317 90.4029L63.0231 93L60.1535 90.4029L56.4044 91.8609L54.5993 88.4436L50.5725 88.5348L50.1097 84.753L46.268 83.4772L47.1474 79.7866L44 77.2806L46.0829 74.0911L44 70.6739L47.0548 68.3501L46.268 64.4772L49.9708 63.3381L50.5725 59.4197L54.4605 59.6019L56.4044 56.1391L59.9684 57.5971L63.0231 55Z" stroke="#EF7F1A" stroke-miterlimit="22.9256" stroke-linecap="round" stroke-linejoin="round"/>
<path d="M71 71H67V79H71V71Z" stroke="#EF7F1A" stroke-miterlimit="22.9256" stroke-linecap="round" stroke-linejoin="round"/>
<path d="M66 71.7931C65.0509 71.0741 64.147 70.355 63.5595 69.7708C62.9719 69.1865 62.7912 68.6922 62.6104 68.1978C62.3845 67.7034 62.2489 67.1641 62.1585 66.7147C62.0681 66.2204 62.0229 65.8159 61.9777 65.5013C61.9325 65.2317 61.8421 65.0968 61.6162 65.0519C61.4354 64.962 61.1642 65.007 60.893 65.0519C60.6671 65.0968 60.4863 65.1418 60.3056 65.4114C60.17 65.6811 60.0344 66.1305 59.9892 66.6698C59.8988 67.254 59.8988 67.9282 59.9892 68.6023C60.0344 69.2315 60.17 69.8157 60.3056 70.2202C60.4863 70.6247 60.6671 70.8044 60.7123 70.8943C60.7575 70.9842 60.6219 70.9842 59.7632 70.9842C58.9497 70.9842 57.3679 70.9842 56.5092 71.0291C55.6957 71.0741 55.6053 71.119 55.4246 71.2988C55.289 71.4336 55.1082 71.6583 55.063 71.928C54.9726 72.1527 54.9726 72.3774 55.1082 72.6021C55.2438 72.8717 55.5149 73.0964 55.6053 73.2313C55.7409 73.3661 55.6957 73.411 55.6053 73.456C55.5601 73.5459 55.4698 73.6807 55.4246 73.8604C55.3794 74.0402 55.4245 74.3099 55.5149 74.4896C55.6505 74.7143 55.8313 74.939 55.9669 75.0739C56.1025 75.1638 56.1928 75.2087 56.238 75.2536C56.238 75.2986 56.1928 75.3435 56.1025 75.4783C56.0573 75.6132 55.9669 75.8379 55.9669 76.1075C55.9669 76.3772 56.0572 76.6468 56.2832 76.8715C56.464 77.0513 56.7804 77.2311 56.916 77.3209C57.0516 77.3659 57.0063 77.4108 56.9612 77.5007C56.8708 77.5457 56.8256 77.6805 56.8707 77.8603C56.8707 78.085 57.0064 78.3546 57.1871 78.5793C57.3679 78.7591 57.6391 78.9388 58.6786 78.9838C59.7632 79.0287 61.6162 78.9838 62.972 78.804C64.3278 78.5793 65.1865 78.1748 66 77.7704" stroke="#EF7F1A" stroke-miterlimit="22.9256" stroke-linecap="round" stroke-linejoin="round"/>
</svg>
