<svg width="83" height="83" viewBox="0 0 83 83" fill="none" xmlns="http://www.w3.org/2000/svg">
<path fill-rule="evenodd" clip-rule="evenodd" d="M41 7C59.7835 7 75 22.4025 75 41.3595C75 48.6506 72.7424 55.4405 68.8592 61H13.1408C9.25764 55.4405 7 48.6506 7 41.3595C7 22.4025 22.2165 7 41 7V7Z" stroke="#EF7F1A" stroke-miterlimit="22.9256" stroke-linecap="round" stroke-linejoin="round"/>
<path d="M23.1963 61C17.9722 55.9595 15 48.9664 15 41.7009C15 26.9427 26.8441 15 41.4353 15C45.8487 15 50.1721 16.1352 54 18.2241" stroke="#EF7F1A" stroke-miterlimit="22.9256" stroke-linecap="round" stroke-linejoin="round"/>
<path d="M41.5 47C44.5376 47 47 44.5376 47 41.5C47 38.4624 44.5376 36 41.5 36C38.4624 36 36 38.4624 36 41.5C36 44.5376 38.4624 47 41.5 47Z" stroke="#EF7F1A" stroke-miterlimit="22.9256" stroke-linecap="round" stroke-linejoin="round"/>
<path d="M45 37L60 22" stroke="#EF7F1A" stroke-miterlimit="22.9256" stroke-linecap="round" stroke-linejoin="round"/>
<path d="M61.5526 44.8994L68 46.0561M61.2017 35.8685L67.4736 34L61.2017 35.8685ZM58 53.0851L63.307 57L58 53.0851Z" stroke="#EF7F1A" stroke-miterlimit="22.9256" stroke-linecap="round" stroke-linejoin="round"/>
<path fill-rule="evenodd" clip-rule="evenodd" d="M41.4773 1C63.8738 1 82 19.1976 82 41.6824C82 49.527 79.774 56.8699 75.9125 63.0726C76.276 62.5253 76.594 61.9324 76.912 61.3395H6.04263C6.36063 61.9324 6.72411 62.5253 7.08755 63.0726C3.22608 56.8699 1 49.527 1 41.6824C1 19.1976 19.1262 1 41.4773 1V1ZM75.9125 63.1182C75.5491 63.6655 75.1856 64.2128 74.8222 64.7601C75.1856 64.2128 75.5491 63.6655 75.9125 63.1182ZM74.7768 64.8057C74.4134 65.3074 74.0499 65.8547 73.6411 66.3564C74.0499 65.8547 74.4134 65.3074 74.7768 64.8057ZM73.5957 66.402C73.2322 66.9037 72.8233 67.4054 72.4145 67.9071C72.8233 67.4054 73.2322 66.9037 73.5957 66.402ZM72.3691 67.9527C71.9602 68.4544 71.5513 68.9105 71.1425 69.3665C71.5513 68.9105 71.9602 68.4544 72.3691 67.9527ZM71.0516 69.4578C70.9153 69.5946 70.7336 69.777 70.5973 69.9138C70.7336 69.777 70.9153 69.5946 71.0516 69.4578ZM70.5973 69.9138C70.3248 70.1875 70.0522 70.5067 69.7342 70.7804C70.0522 70.5067 70.3248 70.1875 70.5973 69.9138ZM69.6433 70.8716C69.507 71.0084 69.3707 71.1453 69.2345 71.2821C69.3707 71.1453 69.507 71.0084 69.6433 70.8716ZM69.0982 71.3733C68.871 71.647 68.5985 71.875 68.3259 72.103C68.5985 71.875 68.871 71.647 69.0982 71.3733ZM68.1896 72.2399C68.0533 72.3767 67.917 72.4679 67.7808 72.6047C67.917 72.4679 68.0533 72.3767 68.1896 72.2399ZM67.599 72.7415C67.3264 72.9696 67.0993 73.152 66.8267 73.3801C67.0993 73.152 67.3264 72.9696 67.599 72.7415ZM66.645 73.5169C66.5087 73.6081 66.3724 73.7449 66.2361 73.8361C66.3724 73.7449 66.5087 73.6081 66.645 73.5169ZM66.009 74.0186C65.8273 74.1554 65.6001 74.3378 65.373 74.5203C65.6001 74.3378 65.8273 74.1554 66.009 74.0186ZM65.1004 74.7027C64.9641 74.7939 64.8278 74.8851 64.6915 74.9763C64.8278 74.8851 64.9641 74.7939 65.1004 74.7027ZM64.419 75.2044C64.2827 75.2956 64.1464 75.3868 64.0101 75.478C64.1464 75.3868 64.2827 75.2956 64.419 75.2044ZM63.4195 75.8429C63.3287 75.9341 63.1924 75.9797 63.0561 76.0709C63.1924 75.9797 63.3287 75.9341 63.4195 75.8429ZM62.7381 76.299C62.6018 76.3446 62.4655 76.4358 62.3747 76.527C62.4655 76.4358 62.6018 76.3446 62.7381 76.299ZM61.7387 76.8919C61.6478 76.9375 61.5115 76.9831 61.4206 77.0743C61.5115 76.9831 61.6478 76.9375 61.7387 76.8919ZM61.0118 77.3024C60.8755 77.348 60.7847 77.4392 60.6484 77.4848C60.7847 77.4392 60.8755 77.348 61.0118 77.3024ZM60.0124 77.8497C59.8761 77.8953 59.7852 77.9409 59.6943 77.9865C59.7852 77.9409 59.8761 77.8953 60.0124 77.8497ZM59.2401 78.2145C59.1038 78.2601 59.0129 78.3057 58.922 78.397C59.0129 78.3057 59.1038 78.2601 59.2401 78.2145ZM58.286 78.6706C58.1952 78.7162 58.0589 78.7618 57.9681 78.8074C58.0589 78.7618 58.1952 78.7162 58.286 78.6706ZM57.4229 79.0355C57.332 79.0811 57.1958 79.1267 57.1049 79.1723C57.1958 79.1267 57.332 79.0811 57.4229 79.0355ZM55.5603 79.8108C55.4695 79.8564 55.3332 79.8564 55.2423 79.902C55.3332 79.8564 55.4695 79.8564 55.5603 79.8108ZM54.6518 80.1301C54.5609 80.1301 54.5155 80.1757 54.4246 80.1757C54.5155 80.1757 54.5609 80.1301 54.6518 80.1301ZM52.7437 80.723C52.6528 80.7686 52.6075 80.7686 52.5166 80.8142C52.6075 80.7686 52.6528 80.7686 52.7437 80.723ZM51.6988 80.9966C51.608 81.0422 51.5171 81.0422 51.4263 81.0878C51.5171 81.0422 51.608 81.0422 51.6988 80.9966ZM50.7903 81.2247C50.6994 81.2703 50.654 81.2703 50.5631 81.2703C50.654 81.2703 50.6994 81.2703 50.7903 81.2247ZM49.7454 81.4983C49.6546 81.4983 49.5636 81.4983 49.4728 81.5439C49.5636 81.4983 49.6546 81.4983 49.7454 81.4983ZM47.7011 81.8632C47.6556 81.8632 47.5648 81.8632 47.5194 81.8632C47.5648 81.8632 47.6556 81.8632 47.7011 81.8632ZM46.7925 81.9544C46.7016 82 46.6562 82 46.5653 82C46.6562 82 46.7016 82 46.7925 81.9544ZM36.4347 82C36.3438 82 36.2529 82 36.2075 81.9544C36.2529 82 36.3438 82 36.4347 82ZM35.4807 81.8632C35.3898 81.8632 35.3444 81.8632 35.2535 81.8632C35.3444 81.8632 35.3898 81.8632 35.4807 81.8632ZM34.3904 81.6807C34.2995 81.6807 34.2541 81.6807 34.1632 81.6351C34.2541 81.6807 34.2995 81.6807 34.3904 81.6807ZM33.4818 81.5439C33.391 81.4983 33.3455 81.4983 33.2547 81.4983C33.3455 81.4983 33.391 81.4983 33.4818 81.5439ZM32.3915 81.2703C32.3461 81.2703 32.2552 81.2703 32.2098 81.2247C32.2552 81.2703 32.3461 81.2703 32.3915 81.2703ZM30.4381 80.8142C30.3926 80.7686 30.3017 80.7686 30.2563 80.723C30.3017 80.7686 30.3926 80.7686 30.4381 80.8142ZM29.6203 80.5405C29.5295 80.4949 29.4386 80.4949 29.3478 80.4493C29.4386 80.4949 29.5295 80.4949 29.6203 80.5405ZM28.5301 80.1757C28.4846 80.1757 28.3937 80.1301 28.3483 80.1301C28.3937 80.1301 28.4846 80.1757 28.5301 80.1757ZM27.7123 79.902C27.6214 79.8564 27.5306 79.8564 27.4397 79.8108C27.5306 79.8564 27.6214 79.8564 27.7123 79.902ZM25.8952 79.1723C25.7589 79.1267 25.668 79.0811 25.5771 79.0355C25.668 79.0811 25.7589 79.1267 25.8952 79.1723ZM25.032 78.8074C24.8957 78.7618 24.8049 78.7162 24.6686 78.6706C24.8049 78.7162 24.8957 78.7618 25.032 78.8074ZM24.078 78.397C23.9871 78.3057 23.8509 78.2601 23.76 78.2145C23.8509 78.2601 23.9871 78.3057 24.078 78.397ZM23.3057 77.9865C23.1694 77.9409 23.0786 77.8953 22.9877 77.8497C23.0786 77.8953 23.1694 77.9409 23.3057 77.9865ZM22.3062 77.4848C22.2154 77.4392 22.0791 77.348 21.9883 77.3024C22.0791 77.348 22.2154 77.4392 22.3062 77.4848ZM21.5794 77.0743C21.4431 76.9831 21.3523 76.9375 21.216 76.8919C21.3523 76.9375 21.4431 76.9831 21.5794 77.0743ZM20.6254 76.527C20.4891 76.4358 20.3528 76.3446 20.2619 76.299C20.3528 76.3446 20.4891 76.4358 20.6254 76.527ZM19.8985 76.0709C19.8076 75.9797 19.6713 75.9341 19.5351 75.8429C19.6713 75.9341 19.8076 75.9797 19.8985 76.0709ZM18.9899 75.478C18.8536 75.3868 18.7174 75.2956 18.5811 75.2044C18.7174 75.2956 18.8536 75.3868 18.9899 75.478ZM18.3085 74.9763C18.1722 74.8851 18.0359 74.7939 17.8996 74.7027C18.0359 74.7939 18.1722 74.8851 18.3085 74.9763ZM17.627 74.5203C17.3999 74.3378 17.1728 74.1554 16.9456 74.0186C17.1728 74.1554 17.3999 74.3378 17.627 74.5203ZM16.7185 73.8361C16.5822 73.7449 16.4459 73.6081 16.3096 73.5169C16.4459 73.6081 16.5822 73.7449 16.7185 73.8361ZM16.1734 73.3801C15.9008 73.152 15.6281 72.9696 15.401 72.7415C15.6281 72.9696 15.9008 73.152 16.1734 73.3801ZM15.2193 72.6047C15.083 72.4679 14.9468 72.3767 14.8105 72.2399C14.9468 72.3767 15.083 72.4679 15.2193 72.6047ZM14.6742 72.103C14.4016 71.875 14.129 71.647 13.8564 71.3733C14.129 71.647 14.4016 71.875 14.6742 72.103ZM13.7656 71.2821C13.6293 71.1453 13.493 71.0084 13.3113 70.8716C13.493 71.0084 13.6293 71.1453 13.7656 71.2821ZM13.2204 70.7804C12.9479 70.5067 12.6753 70.1875 12.3573 69.9138C12.6753 70.1875 12.9479 70.5067 13.2204 70.7804ZM12.3573 69.9138C12.221 69.777 12.0847 69.5946 11.9484 69.4578C12.0847 69.5946 12.221 69.777 12.3573 69.9138ZM11.8575 69.3665C11.4487 68.9105 11.0399 68.4544 10.631 67.9527C11.0399 68.4544 11.4487 68.9105 11.8575 69.3665ZM10.5401 67.9071C10.1313 67.4054 9.76786 66.9037 9.359 66.402C9.76786 66.9037 10.1313 67.4054 10.5401 67.9071ZM9.31352 66.3564C8.90466 65.8547 8.54123 65.3074 8.1778 64.8057C8.54123 65.3074 8.90466 65.8547 9.31352 66.3564ZM8.1778 64.7601C7.76894 64.2128 7.45098 63.6655 7.08755 63.1182C7.45098 63.6655 7.76894 64.2128 8.1778 64.7601Z" stroke="#EF7F1A" stroke-miterlimit="22.9256" stroke-linecap="round" stroke-linejoin="round"/>
<path fill-rule="evenodd" clip-rule="evenodd" d="M77 61C70.0821 73.5543 56.7923 82 41.5 82C26.2532 82 12.9179 73.5543 6 61H77V61Z" stroke="#EF7F1A" stroke-miterlimit="22.9256" stroke-linecap="round" stroke-linejoin="round"/>
<path fill-rule="evenodd" clip-rule="evenodd" d="M73 67C65.5935 76.1518 54.2581 82 41.4774 82C28.7419 82 17.3613 76.1518 10 67H73Z" stroke="#EF7F1A" stroke-miterlimit="22.9256" stroke-linecap="round" stroke-linejoin="round"/>
</svg>
