<svg width="75" height="85" viewBox="0 0 75 85" fill="none" xmlns="http://www.w3.org/2000/svg">
<path fill-rule="evenodd" clip-rule="evenodd" d="M1 7H15.7377V10.35H43.7869V7H59V50.55C58.5246 50.55 57.5738 50.55 57.0984 50.55C55.1967 50.55 53.7705 50.55 52.3443 51.0286V15.1357H15.2623L8.13115 21.3571V66.8214H40.459V67.3C40.459 69.6929 40.9344 72.0857 41.8852 74H1V7V7Z" stroke="#EF7F1A" stroke-width="2" stroke-miterlimit="22.9256" stroke-linecap="round" stroke-linejoin="round"/>
<path fill-rule="evenodd" clip-rule="evenodd" d="M16 3H24.5424V4H34.983V3H44V10H16V3Z" stroke="#EF7F1A" stroke-width="2" stroke-miterlimit="22.9256" stroke-linecap="round" stroke-linejoin="round"/>
<path d="M34 1H24V4H34V1Z" stroke="#EF7F1A" stroke-width="2" stroke-miterlimit="22.9256" stroke-linecap="round" stroke-linejoin="round"/>
<path fill-rule="evenodd" clip-rule="evenodd" d="M15.0968 15H52V51.1111C45.3763 53.037 40.172 59.2963 40.172 67H8V21.2593L15.0968 15V15Z" stroke="#EF7F1A" stroke-width="2" stroke-miterlimit="22.9256" stroke-linecap="round" stroke-linejoin="round"/>
<path fill-rule="evenodd" clip-rule="evenodd" d="M15 15L8 21H15V15Z" stroke="#EF7F1A" stroke-miterlimit="22.9256" stroke-linecap="round" stroke-linejoin="round"/>
<path d="M21 27H14V34H21V27Z" stroke="#EF7F1A" stroke-miterlimit="22.9256" stroke-linecap="round" stroke-linejoin="round"/>
<path d="M21 41H14V48H21V41Z" stroke="#EF7F1A" stroke-miterlimit="22.9256" stroke-linecap="round" stroke-linejoin="round"/>
<path d="M21 53H14V60H21V53Z" stroke="#EF7F1A" stroke-miterlimit="22.9256" stroke-linecap="round" stroke-linejoin="round"/>
<path d="M25 30H47" stroke="#EF7F1A" stroke-miterlimit="22.9256" stroke-linecap="round" stroke-linejoin="round"/>
<path d="M26 32H39" stroke="#EF7F1A" stroke-miterlimit="22.9256" stroke-linecap="round" stroke-linejoin="round"/>
<path d="M25 43H47" stroke="#EF7F1A" stroke-miterlimit="22.9256" stroke-linecap="round" stroke-linejoin="round"/>
<path d="M26 45H39" stroke="#EF7F1A" stroke-miterlimit="22.9256" stroke-linecap="round" stroke-linejoin="round"/>
<path d="M25 56H45" stroke="#EF7F1A" stroke-miterlimit="22.9256" stroke-linecap="round" stroke-linejoin="round"/>
<path d="M26 58H39" stroke="#EF7F1A" stroke-miterlimit="22.9256" stroke-linecap="round" stroke-linejoin="round"/>
<path d="M15 31L17 33L20 29" stroke="#EF7F1A" stroke-miterlimit="22.9256" stroke-linecap="round" stroke-linejoin="round"/>
<path d="M15 43.5L17 46L20 42" stroke="#EF7F1A" stroke-miterlimit="22.9256" stroke-linecap="round" stroke-linejoin="round"/>
<path d="M15 57L17 59L20 55" stroke="#EF7F1A" stroke-miterlimit="22.9256" stroke-linecap="round" stroke-linejoin="round"/>
<path d="M57.5 84C66.6127 84 74 76.3888 74 67C74 57.6112 66.6127 50 57.5 50C48.3873 50 41 57.6112 41 67C41 76.3888 48.3873 84 57.5 84Z" stroke="#EF7F1A" stroke-width="2" stroke-miterlimit="22.9256"/>
<path d="M67 65H62V76H67V65Z" stroke="#EF7F1A" stroke-miterlimit="22.9256"/>
<path d="M61 66.2564C60.0667 65.2821 58.6667 64.3077 58.2 63.3333C57.2667 62.8462 56.8 61.8718 56.8 61.3846C56.3333 60.8974 56.3333 59.9231 56.3333 59.4359C55.8667 58.4615 55.8667 57.9744 55.8667 57.4872C55.8667 57.4872 55.8667 57 55.4 57C55.4 57 54.9333 57 54.4667 57C54 57 54 57 54 57.4872C53.5333 57.9744 53.5333 58.4615 53.5333 59.4359C53.0667 59.9231 53.0667 60.8974 53.5333 61.8718C53.5333 62.8462 53.5333 63.3333 54 64.3077C54 64.7949 54.4667 64.7949 54.4667 64.7949C54.4667 65.2821 54 65.2821 53.0667 65.2821C52.1333 65.2821 49.8 65.2821 48.8667 65.2821C47.9333 65.2821 47.4667 65.2821 47.4667 65.2821C47.4667 65.7692 47 66.2564 47 66.2564C47 66.7436 47 67.2308 47 67.2308C47.4667 67.7179 47.4667 68.2051 47.9333 68.2051C47.9333 68.2051 47.9333 68.2051 47.9333 68.6923C47.4667 68.6923 47.4667 68.6923 47.4667 69.1795V69.6667C47.9333 70.1538 47.9333 70.641 47.9333 70.641C48.4 70.641 48.4 70.641 48.4 71.1282C48.4 71.6154 47.9333 71.6154 47.9333 72.1026C47.9333 72.5897 48.4 72.5897 48.4 73.0769C48.8667 73.5641 49.3333 73.5641 49.3333 73.5641V74.0513C49.3333 74.0513 49.3333 74.0513 49.3333 74.5385C49.3333 74.5385 49.3333 75.0256 49.8 75.5128C49.8 75.5128 50.2667 76 51.6667 76C53.0667 76 55.4 76 57.2667 75.5128C59.1333 75.5128 60.0667 75.0256 61 74.5385" stroke="#EF7F1A" stroke-miterlimit="22.9256"/>
</svg>
