<svg width="94" height="80" viewBox="0 0 94 80" fill="none" xmlns="http://www.w3.org/2000/svg">
<path d="M23.8662 0H90.1338C90.5669 0 91 0.434524 91 0.869048V72.131C91 72.5655 90.5669 73 90.1338 73H23.8662C23.4331 73 23 72.5655 23 72.131V60.8333H24.7325V70.8274H89.2675V2.17262H24.7325V39.1071H23V0.869048C23 0.434524 23.4331 0 23.8662 0V0Z" fill="#EF7F1A"/>
<path fill-rule="evenodd" clip-rule="evenodd" d="M27 5H86V68H27V61H30.0593V64.9375H51.9111V8.0625H30.0593V39.125H27V5Z" stroke="#EF7F1A" stroke-miterlimit="22.9256" stroke-linecap="round" stroke-linejoin="round"/>
<path fill-rule="evenodd" clip-rule="evenodd" d="M31 8H53V64H31V60.1231H44.64C46.84 60.1231 49.04 57.9692 49.04 55.3846V42.8923C49.04 40.7385 46.84 38.5846 44.64 38.5846H31V8V8Z" stroke="#EF7F1A" stroke-miterlimit="22.9256" stroke-linecap="round" stroke-linejoin="round"/>
<path fill-rule="evenodd" clip-rule="evenodd" d="M55 7H85V67H55V7V7ZM57.6087 10.0435H81.9565V63.9565H57.6087V36.5652H56.7391C56.3043 36.5652 55.8696 36.1304 55.8696 35.6957C55.8696 35.2609 56.3043 34.8261 56.7391 34.8261H57.6087V10.0435V10.0435Z" stroke="#EF7F1A" stroke-miterlimit="22.9256" stroke-linecap="round" stroke-linejoin="round"/>
<path d="M93 72H19V79H93V72Z" stroke="#EF7F1A" stroke-width="2" stroke-miterlimit="22.9256" stroke-linecap="round" stroke-linejoin="round"/>
<path d="M61.0667 34H55.9333C55.4179 34 55 34.3582 55 34.8V35.2C55 35.6418 55.4179 36 55.9333 36H61.0667C61.5821 36 62 35.6418 62 35.2V34.8C62 34.3582 61.5821 34 61.0667 34Z" stroke="#EF7F1A" stroke-miterlimit="22.9256" stroke-linecap="round" stroke-linejoin="round"/>
<path fill-rule="evenodd" clip-rule="evenodd" d="M11.7798 39H43.6881C45.844 39 48 41.2 48 43.4V56.16C48 58.8 45.844 61 43.6881 61H11.7798C10.055 61 8.33028 59.24 7.89908 57.48C4.01835 57.04 1 53.96 1 50C1 46.48 4.01835 42.96 7.89908 42.52C8.33028 40.76 10.055 39 11.7798 39V39Z" stroke="#EF7F1A" stroke-width="2" stroke-miterlimit="22.9256"/>
<path d="M7.5 52C8.88071 52 10 50.8807 10 49.5C10 48.1193 8.88071 47 7.5 47C6.11929 47 5 48.1193 5 49.5C5 50.8807 6.11929 52 7.5 52Z" stroke="#EF7F1A" stroke-miterlimit="22.9256"/>
<path d="M36 49H32V57H36V49Z" stroke="#EF7F1A" stroke-miterlimit="22.9256"/>
<path d="M32 49.5625C31.12 49.125 29.8 48.25 29.36 47.8125C28.92 46.9375 28.48 46.5 28.48 46.0625C28.48 45.625 28.04 45.1875 28.04 44.75C28.04 44.3125 28.04 43.875 28.04 43.4375C27.6 43 27.6 43 27.6 43C27.16 43 27.16 43 26.72 43C26.72 43 26.28 43 26.28 43.4375C25.84 43.4375 25.84 43.875 25.84 44.75C25.84 45.1875 25.84 46.0625 25.84 46.5C25.84 46.9375 25.84 47.8125 26.28 48.25C26.28 48.6875 26.72 48.6875 26.72 48.6875C26.72 48.6875 26.72 48.6875 25.84 48.6875C24.96 48.6875 23.2 48.6875 22.32 49.125C21.44 49.125 21.44 49.125 21.44 49.125C21.44 49.125 21 49.5625 21 50V50.4375C21 50.875 21.44 50.875 21.44 51.3125V51.75V52.1875C21.44 52.625 21.88 52.625 21.88 53.0625H22.32C22.32 53.0625 22.32 53.0625 21.88 53.5C21.88 53.5 21.88 53.5 21.88 53.9375C21.88 54.375 21.88 54.375 22.32 54.8125L22.76 55.25V55.6875C22.76 56.125 22.76 56.125 23.2 56.5625C23.2 56.5625 23.64 56.5625 24.52 57C25.84 57 27.6 57 28.92 56.5625C30.24 56.5625 31.12 56.125 32 55.6875" stroke="#EF7F1A" stroke-miterlimit="22.9256"/>
<path d="M8.59019 52.0225C8.59019 51.5882 8.59019 50.7196 8.15645 50.2853C7.72271 49.851 6.42148 49.851 5.12026 50.7196C3.38529 51.5882 2.08407 53.7596 2.08407 55.4968C1.65032 57.6683 2.95155 60.274 4.68652 62.0112C6.85523 63.3141 9.89142 64.617 12.0601 65.4856C14.6626 66.3542 16.3975 67.2228 17.265 68.0914C18.5663 69.3942 18.5663 70.6971 19 72" stroke="#EF7F1A" stroke-miterlimit="22.9256"/>
<path d="M12 61C13.6471 62.2692 14.8824 63.9615 15.7059 65.2308C16.9412 66.5 18.1765 67.3462 18.5882 68.1923C19 69.4615 19 70.7308 19 72" stroke="#EF7F1A" stroke-miterlimit="22.9256"/>
</svg>
