<svg width="94" height="98" viewBox="0 0 94 98" fill="none" xmlns="http://www.w3.org/2000/svg">
<path d="M6.09235 14H75.9077C76.4776 14 77 14.4771 77 15.0973V89.9027C77 90.5229 76.4776 91 75.9077 91H6.09235C5.47493 91 5 90.5229 5 89.9027V77.9758H7.1372V88.8532H74.8153V16.1945H7.1372V77.9758H5V15.0973C5 14.4771 5.47493 14 6.09235 14Z" fill="#EF7F1A"/>
<path d="M9.51706 19H70.4829C70.765 19 71 19.2383 71 19.5242V85.4758C71 85.7617 70.765 86 70.4829 86H9.51706C9.23503 86 9 85.7617 9 85.4758V19.5242C9 19.2383 9.23503 19 9.51706 19ZM69.9659 20.096H10.0811V77.0413V77.4225V78.4708V79.4716V84.904H69.9659V20.096ZM11.9613 77.4225V77.0413V22.7646C11.9613 22.4787 12.1964 22.2404 12.5254 22.2404H35.37C35.652 22.2404 35.887 22.4787 35.887 22.7646V82.2354C35.887 82.569 35.652 82.8073 35.37 82.8073H12.5254C12.1964 82.8073 11.9613 82.569 11.9613 82.2354V79.4716V78.4708V77.4225ZM13.0425 77.9467V81.7112H34.8529V23.2888H13.0425V77.9467Z" fill="#EF7F1A"/>
<path fill-rule="evenodd" clip-rule="evenodd" d="M13 23H36V82H13V77.7452V55.4311V23Z" stroke="#EF7F1A" stroke-miterlimit="22.9256" stroke-linecap="round" stroke-linejoin="round"/>
<path fill-rule="evenodd" clip-rule="evenodd" d="M38 21H69V84H38V21ZM40.8436 23.8615H66.1564V81.0908H40.8436V52.19H40.0045C39.3985 52.19 38.9323 51.7131 38.9323 51.1408C38.9323 50.5685 39.3985 50.0916 40.0045 50.0916H40.8436V23.8615V23.8615Z" stroke="#EF7F1A" stroke-miterlimit="22.9256" stroke-linecap="round" stroke-linejoin="round"/>
<path d="M78 90H1V97H78V90Z" stroke="#EF7F1A" stroke-width="2" stroke-miterlimit="22.9256" stroke-linecap="round" stroke-linejoin="round"/>
<path d="M43.9595 50H39.0405C38.4659 50 38 50.4378 38 50.9778V51.0222C38 51.5622 38.4659 52 39.0405 52H43.9595C44.5341 52 45 51.5622 45 51.0222V50.9778C45 50.4378 44.5341 50 43.9595 50Z" stroke="#EF7F1A" stroke-miterlimit="22.9256" stroke-linecap="round" stroke-linejoin="round"/>
<path d="M13.0455 7H82.9069C83.5247 7 84 7.52478 84 8.09727V82.9504C84 83.5229 83.5247 84 82.9069 84H75.7307V81.8532H81.8614V9.19455H14.1386V15.1103H12V8.09727C12 7.52478 12.4752 7 13.0455 7Z" fill="#EF7F1A"/>
<path fill-rule="evenodd" clip-rule="evenodd" d="M76 83H86V90H76V83Z" stroke="#EF7F1A" stroke-width="2" stroke-miterlimit="22.9256" stroke-linecap="round" stroke-linejoin="round"/>
<path d="M20.0931 0H89.9545C90.5248 0 91 0.477076 91 1.09727V75.9027C91 76.5229 90.5248 77 89.9545 77H82.7307V74.8532H88.8614V2.19455H21.1386V8.06258H19V1.09727C19 0.477076 19.4752 0 20.0931 0V0Z" fill="#EF7F1A"/>
<path fill-rule="evenodd" clip-rule="evenodd" d="M83 76H93V83H83V76Z" stroke="#EF7F1A" stroke-width="2" stroke-miterlimit="22.9256" stroke-linecap="round" stroke-linejoin="round"/>
</svg>
