<svg width="100" height="77" viewBox="0 0 100 77" fill="none" xmlns="http://www.w3.org/2000/svg">
<path fill-rule="evenodd" clip-rule="evenodd" d="M79.6667 3C83.7647 3 87 6.2069 87 10.0345V13.9655C87 16.6552 85.3824 19.0345 83.0098 20.1724C82.0392 20.6897 80.8529 21 79.6667 21C78.3725 21 77.0784 20.5862 76 19.9655C76 16.4483 76 6 76 5.68966H79.5588V3H79.6667Z" stroke="#EF7F1A" stroke-width="2" stroke-miterlimit="22.9256" stroke-linecap="round" stroke-linejoin="round"/>
<path fill-rule="evenodd" clip-rule="evenodd" d="M19.8687 3C19.9697 3 19.9697 3 20.0707 3V5.68966H23C23 6 23 16.8621 23 20.1724C22.0909 20.6897 20.9798 21 19.8687 21C16.0303 21 13 17.7931 13 13.9655V10.0345C13 6.2069 16.0303 3 19.8687 3V3Z" stroke="#EF7F1A" stroke-width="2" stroke-miterlimit="22.9256" stroke-linecap="round" stroke-linejoin="round"/>
<path fill-rule="evenodd" clip-rule="evenodd" d="M76 6C76 6.31098 76 21.3415 76 21.5488C76 31.7073 67.7131 40 57.5617 40H42.4382C32.2869 40 24 31.7073 24 21.5488C24 21.3415 24 6.31098 24 6H43.3705L42.8526 7.14024L39.4343 7.03658L38.9163 10.4573L35.6016 11.4939L36.3267 15.0183L33.6335 17.0915L35.498 20.0976L33.6335 22.8963L36.3267 25.1768L35.6016 28.4939L39.0199 29.6341L39.4343 32.9512H42.9562L44.51 35.9573L47.8247 34.6098L50.3108 36.9939L53.004 34.6098L56.1116 35.9573L57.7689 32.8476L61.1872 32.9512L61.7052 29.5305L65.0199 28.4939L64.2948 24.9695L66.988 22.8963L65.1235 19.8902L66.988 17.0915L64.2948 14.811L65.0199 11.4939L61.6016 10.3537L61.1872 7.03658H57.6653L57.1474 6H76V6Z" stroke="#EF7F1A" stroke-width="2" stroke-miterlimit="22.9256" stroke-linecap="round" stroke-linejoin="round"/>
<path fill-rule="evenodd" clip-rule="evenodd" d="M21 1H79V6H56.8901L55.8617 3.84091L52.5709 5.31818L50.1028 2.70455L47.4291 5.31818L44.344 3.84091L43.2128 6H21V1Z" stroke="#EF7F1A" stroke-width="2" stroke-miterlimit="22.9256" stroke-linecap="round" stroke-linejoin="round"/>
<path fill-rule="evenodd" clip-rule="evenodd" d="M49.5 3L51.9596 5.38415L55.2391 4.03659L56.7764 7.04268H60.2609L60.6708 10.3598L64.0528 11.5L63.3354 14.8171L66 17.0976L64.1553 19.8963L66 22.9024L63.3354 24.9756L64.0528 28.5L60.7733 29.5366L60.2609 32.9573L56.8789 32.8537L55.2391 35.9634L52.1646 34.6159L49.5 37L47.0404 34.6159L43.7609 35.9634L42.2236 32.9573H38.7391L38.3292 29.6402L34.9472 28.5L35.6646 25.1829L33 22.9024L34.8447 20.1037L33 17.0976L35.6646 15.0244L34.9472 11.5L38.2267 10.4634L38.7391 7.04268L42.1211 7.14634L43.7609 4.03659L46.8354 5.38415L49.5 3Z" stroke="#EF7F1A" stroke-width="2" stroke-miterlimit="22.9256" stroke-linecap="round" stroke-linejoin="round"/>
<path fill-rule="evenodd" clip-rule="evenodd" d="M50 7L51.7586 8.69492L54.1379 7.74153L55.2759 9.9661H57.8621L58.1724 12.4025L60.5517 13.25L60.0345 15.6864L62 17.3814L60.6552 19.5L62 21.7246L60.0345 23.2076L60.5517 25.75L58.2759 26.4915L57.8621 29.0339L55.3793 28.928L54.1379 31.2585L51.8621 30.3051L50 32L48.2414 30.3051L45.8621 31.2585L44.7241 29.0339H42.1379L41.8276 26.5975L39.4483 25.75L39.9655 23.3136L38 21.7246L39.3448 19.6059L38 17.3814L39.9655 15.7924L39.4483 13.25L41.7241 12.5085L42.1379 9.9661L44.6207 10.072L45.8621 7.74153L48.1379 8.69492L50 7Z" stroke="#EF7F1A" stroke-miterlimit="22.9256" stroke-linecap="round" stroke-linejoin="round"/>
<path fill-rule="evenodd" clip-rule="evenodd" d="M48 14.88V12H54V14.88H52.5V25.12H54V28H48V25.12H49.5V14.88H48Z" stroke="#EF7F1A" stroke-miterlimit="22.9256" stroke-linecap="round" stroke-linejoin="round"/>
<path fill-rule="evenodd" clip-rule="evenodd" d="M39.5 64L40.4615 65.3L42 65.9L41.1346 67.2L41.0385 69L39.5962 68.5L37.9615 69V67.4L37 65.9L38.4423 65.4L39.5 64Z" stroke="#EF7F1A" stroke-miterlimit="22.9256" stroke-linecap="round" stroke-linejoin="round"/>
<path fill-rule="evenodd" clip-rule="evenodd" d="M50.5 64L51.4615 65.3L53 65.9L52.1346 67.2L52.0385 69L50.5962 68.5L48.9615 69V67.4L48 65.9L49.4423 65.4L50.5 64Z" stroke="#EF7F1A" stroke-miterlimit="22.9256" stroke-linecap="round" stroke-linejoin="round"/>
<path fill-rule="evenodd" clip-rule="evenodd" d="M61.5 64L62.3654 65.3L64 65.9L63.1346 67.2L63.0385 69L61.5 68.5L59.9615 69L59.8654 67.4L59 65.9L60.4423 65.4L61.5 64Z" stroke="#EF7F1A" stroke-miterlimit="22.9256" stroke-linecap="round" stroke-linejoin="round"/>
<path d="M55.8323 40H45.1677C43.4182 40 42 40.8954 42 42C42 43.1046 43.4182 44 45.1677 44H55.8323C57.5818 44 59 43.1046 59 42C59 40.8954 57.5818 40 55.8323 40Z" stroke="#EF7F1A" stroke-width="2" stroke-miterlimit="22.9256" stroke-linecap="round" stroke-linejoin="round"/>
<path d="M55 43H44V49H55V43Z" stroke="#EF7F1A" stroke-width="2" stroke-miterlimit="22.9256" stroke-linecap="round" stroke-linejoin="round"/>
<path fill-rule="evenodd" clip-rule="evenodd" d="M68 56C66.8599 51.9853 60.7451 49 53.3866 49H45.6134C38.2549 49 32.1401 51.9853 31 56H68V56Z" stroke="#EF7F1A" stroke-width="2" stroke-miterlimit="22.9256" stroke-linecap="round" stroke-linejoin="round"/>
<path d="M77 56H22V76H77V56Z" stroke="#EF7F1A" stroke-width="2" stroke-miterlimit="22.9256" stroke-linecap="round" stroke-linejoin="round"/>
<path d="M67 60H32V72H67V60Z" stroke="#EF7F1A" stroke-miterlimit="22.9256" stroke-linecap="round" stroke-linejoin="round"/>
<path fill-rule="evenodd" clip-rule="evenodd" d="M83.327 53.1911C83.5359 51.79 83.6403 49.3111 84.5802 47.91C85.4157 46.5089 86.8778 46.0778 89.3842 45.7544C91.8906 45.3233 95.3369 45.1078 96.9034 45C98.47 45 98.1566 45.2156 97.2167 46.7244C96.3813 48.1255 94.9192 50.82 93.7704 52.6522C92.6216 54.4844 91.7862 55.5622 89.9064 55.8855C88.0265 56.2088 85.1024 55.7777 83.8492 55.4544C82.596 55.0233 83.0137 54.5922 83.327 53.1911V53.1911Z" stroke="#EF7F1A" stroke-miterlimit="22.9256"/>
<path fill-rule="evenodd" clip-rule="evenodd" d="M87.0421 41.2099C87.0421 39.8677 86.8291 37.8028 87.3616 36.4606C87.7876 35.2217 89.1723 34.6022 91.409 33.8795C93.5391 33.1567 96.6279 32.3308 98.0125 32.1243C99.3972 31.8145 99.0776 32.021 98.5451 33.4665C98.0125 34.8087 97.1605 37.2866 96.4149 39.0418C95.6693 40.7969 95.1368 41.8294 93.4326 42.3456C91.835 42.9651 89.0658 43.0684 87.8942 42.9651C86.7226 42.8619 87.0421 42.4489 87.0421 41.2099V41.2099Z" stroke="#EF7F1A" stroke-miterlimit="22.9256"/>
<path fill-rule="evenodd" clip-rule="evenodd" d="M85.2296 31.935C84.9222 31.0229 84.1025 29.6042 84 28.5908C84 27.4761 84.7173 26.6654 86.0494 25.5507C87.2791 24.436 89.1235 22.9159 90.0458 22.3079C90.8655 21.6998 90.7631 22.0039 90.7631 23.1186C90.7631 24.2333 90.968 26.2601 90.968 27.6788C91.0705 29.0975 90.968 30.0096 90.0458 30.8203C89.0211 31.7323 87.2791 32.6443 86.3568 32.9484C85.5371 33.151 85.6395 32.7457 85.2296 31.935V31.935Z" stroke="#EF7F1A" stroke-miterlimit="22.9256"/>
<path fill-rule="evenodd" clip-rule="evenodd" d="M16.6735 53.1911C16.3608 51.79 16.2565 49.3111 15.4225 47.91C14.5885 46.5089 13.0247 46.0778 10.5226 45.7544C8.02059 45.3233 4.58025 45.1078 3.01646 45C1.55693 45 1.86968 45.2156 2.7037 46.7244C3.64198 48.1255 5.10151 50.82 6.24829 52.6522C7.29082 54.4844 8.12484 55.5622 10.1056 55.8855C11.9822 56.2088 14.9013 55.7777 16.1523 55.4544C17.4033 55.0233 16.9863 54.5922 16.6735 53.1911V53.1911Z" stroke="#EF7F1A" stroke-miterlimit="22.9256"/>
<path fill-rule="evenodd" clip-rule="evenodd" d="M12.9603 41.2099C12.8542 39.8677 13.1726 37.8028 12.6419 36.4606C12.1111 35.2217 10.8373 34.6022 8.60804 33.8795C6.37881 33.1567 3.40651 32.3308 2.02652 32.1243C0.64652 31.8145 0.858827 32.021 1.49575 33.4665C2.02652 34.8087 2.87574 37.2866 3.61882 39.0418C4.36189 40.7969 4.89266 41.8294 6.48496 42.3456C8.18342 42.9651 10.9434 43.0684 12.1111 42.9651C13.2788 42.8619 12.9603 42.4489 12.9603 41.2099V41.2099Z" stroke="#EF7F1A" stroke-miterlimit="22.9256"/>
<path fill-rule="evenodd" clip-rule="evenodd" d="M14.7567 31.935C15.1679 31.0229 15.9903 29.6042 15.9903 28.5908C16.0931 27.4761 15.3735 26.6654 14.0371 25.5507C12.8036 24.436 10.9532 22.9159 10.028 22.3079C9.2056 21.6998 9.3084 22.0039 9.2056 23.1186C9.2056 24.2333 9.1028 26.2601 9 27.6788C9 29.0975 9.1028 30.0096 10.028 30.8203C10.9532 31.7323 12.8036 32.6443 13.6259 32.9484C14.5511 33.151 14.4483 32.7457 14.7567 31.935V31.935Z" stroke="#EF7F1A" stroke-miterlimit="22.9256"/>
</svg>
