<svg width="100" height="95" viewBox="0 0 100 95" fill="none" xmlns="http://www.w3.org/2000/svg">
<path fill-rule="evenodd" clip-rule="evenodd" d="M1 1H94.9795L99 4.5H5.02051V81L1 77.3333V1V1ZM80.9077 77.3333H76.8872V74.6667L79.5675 75.8333L80.9077 73.5V77.3333V77.3333Z" stroke="#EF7F1A" stroke-width="2" stroke-miterlimit="22.9256" stroke-linecap="round" stroke-linejoin="round"/>
<path fill-rule="evenodd" clip-rule="evenodd" d="M5 5H99V82H80.9037V74.451L79.5633 76.7996L75.877 75.122L72.861 77.9739L70.0125 75.2898L66.3262 76.6318V82H5V5Z" stroke="#EF7F1A" stroke-width="2" stroke-miterlimit="22.9256" stroke-linecap="round" stroke-linejoin="round"/>
<path fill-rule="evenodd" clip-rule="evenodd" d="M15 13H90V47.2366L86.8049 46.0732L86.1323 42.2507H82.0964L80.2466 38.7606L76.3789 40.2563L73.5202 37.5972L70.4933 40.2563L66.7937 38.7606L64.7758 42.4169L60.9081 42.2507L60.2354 46.2394L56.5359 47.4028L57.2085 51.3915L54.1816 53.7183L56.1995 57.2085L54.1816 60.5324L57.3767 63.0254L56.5359 66.8479L60.4036 68.1775L60.9081 72H15V13V13ZM90 49.8958V51.3915L89.8318 51.2254L90 49.8958ZM90 62.693V64.0225L89.8318 62.8592L90 62.693V62.693ZM90 67.0141V72H86.1323L86.8049 68.0113L90 67.0141ZM85.796 72H82.0964L82.2646 71.8338L85.796 72ZM64.9439 72H61.7489H64.9439Z" stroke="#EF7F1A" stroke-miterlimit="22.9256" stroke-linecap="round" stroke-linejoin="round"/>
<path fill-rule="evenodd" clip-rule="evenodd" d="M73 43L75.1928 44.8225L77.8916 43.8284L79.241 46.3136H82.1084L82.6145 48.9645L85.3133 49.9586L84.8072 52.7751L87 54.5976L85.4819 56.9172L87 59.4024L84.8072 61.0592L85.3133 64.0414L82.6145 64.8698L82.1084 67.6864L79.241 67.5207L77.8916 70.1716L75.1928 69.0118L73 71L70.9759 69.0118L68.1084 70.1716L66.759 67.6864H63.8916L63.5542 64.8698L60.6867 64.0414L61.3614 61.2249L59 59.4024L60.5181 57.0828L59 54.5976L61.1928 52.7751L60.6867 49.9586L63.3855 49.1302L63.8916 46.3136H66.759L68.1084 43.8284L70.8072 44.9882L73 43Z" stroke="#EF7F1A" stroke-miterlimit="22.9256" stroke-linecap="round" stroke-linejoin="round"/>
<path fill-rule="evenodd" clip-rule="evenodd" d="M66 94V76.1311L69.7931 74.8197L72.7241 77.4426L75.8276 74.6557L79.6207 76.2951L81 74V94L73.4138 90.8852L66 94Z" stroke="#EF7F1A" stroke-width="2" stroke-miterlimit="22.9256" stroke-linecap="round" stroke-linejoin="round"/>
<path fill-rule="evenodd" clip-rule="evenodd" d="M73.4156 38L76.2857 40.6553L80.1688 39.1617L82.026 42.6468H86.0779L86.7532 46.4638L90.6364 47.7915L89.7922 51.6085L93 54.0979L90.8052 57.417L93 60.9021L89.7922 63.2255L90.6364 67.2085L86.7532 68.3702L86.0779 72.3532L82.1948 72.1872L80.1688 75.8383L76.4545 74.1787L73.4156 77L70.5455 74.3447L66.6623 75.8383L64.8052 72.3532H60.7532L60.2468 68.5362L56.3636 67.2085L57.2078 63.3915L54 60.9021L56.026 57.583L54 54.0979L57.039 51.7745L56.3636 47.7915L60.0779 46.6298L60.7532 42.6468L64.6364 42.8128L66.6623 39.1617L70.3766 40.6553L73.4156 38Z" stroke="#EF7F1A" stroke-width="2" stroke-miterlimit="22.9256" stroke-linecap="round" stroke-linejoin="round"/>
<path d="M39 23H22V32H39V23Z" stroke="#EF7F1A" stroke-width="2" stroke-miterlimit="22.9256" stroke-linecap="round" stroke-linejoin="round"/>
<path d="M22 41H54" stroke="#EF7F1A" stroke-width="2" stroke-miterlimit="22.9256" stroke-linecap="round" stroke-linejoin="round"/>
<path d="M22 47H41" stroke="#EF7F1A" stroke-width="2" stroke-miterlimit="22.9256" stroke-linecap="round" stroke-linejoin="round"/>
<path d="M22 53H48" stroke="#EF7F1A" stroke-width="2" stroke-miterlimit="22.9256" stroke-linecap="round" stroke-linejoin="round"/>
<path d="M22 59H41" stroke="#EF7F1A" stroke-width="2" stroke-miterlimit="22.9256" stroke-linecap="round" stroke-linejoin="round"/>
<path d="M80 55H76V63H80V55Z" stroke="#EF7F1A" stroke-miterlimit="22.9256" stroke-linecap="round" stroke-linejoin="round"/>
<path d="M76 56.2808C75.0294 55.5947 74.2206 54.737 73.5735 54.0508C73.0882 53.5362 72.7647 53.0216 72.6029 52.507C72.4412 51.8208 72.2794 51.3062 72.1177 50.7916C72.1177 50.277 72.1176 49.9339 71.9559 49.5909C71.9559 49.2478 71.7941 49.0762 71.6324 49.0762C71.4706 48.9047 71.1471 49.0762 70.9853 49.0762C70.6618 49.0762 70.5 49.2478 70.3382 49.4193C70.1765 49.7624 70.0147 50.277 70.0147 50.7916C69.8529 51.4778 69.8529 52.1639 70.0147 52.8501C70.0147 53.5362 70.1765 54.2224 70.3382 54.5654C70.5 55.0801 70.6618 55.2516 70.6618 55.2516C70.8235 55.4231 70.6618 55.4231 69.8529 55.4231C68.8823 55.4231 67.4265 55.4231 66.4559 55.4231C65.6471 55.4231 65.4853 55.5947 65.4853 55.7662C65.3235 55.9377 65.1618 56.1093 65 56.4524C65 56.6239 65 56.967 65.1618 57.1385C65.1618 57.4816 65.4853 57.6531 65.6471 57.8247C65.6471 57.9962 65.6471 57.9962 65.6471 57.9962C65.4853 58.1677 65.4853 58.3393 65.4853 58.5108C65.3235 58.6823 65.3235 59.0254 65.4853 59.197C65.6471 59.3685 65.8088 59.7116 65.9706 59.7116C66.1324 59.8831 66.1324 59.8831 66.1324 60.0546C66.2941 60.0546 66.1324 60.0546 66.1324 60.2262C65.9706 60.3977 65.9706 60.5693 65.9706 60.9123C65.9706 61.2554 65.9706 61.4269 66.2941 61.77C66.4559 61.9416 66.7794 62.1131 66.9412 62.1131C67.1029 62.2846 66.9412 62.2846 66.9412 62.4562C66.9412 62.4562 66.7794 62.6277 66.7794 62.7992C66.9412 62.9708 66.9412 63.3139 67.1029 63.4854C67.4265 63.8285 67.5882 64 68.7206 64C69.6912 64 71.6324 64 72.9265 63.8285C74.3824 63.4854 75.1912 63.1423 76 62.6277" stroke="#EF7F1A" stroke-miterlimit="22.9256" stroke-linecap="round" stroke-linejoin="round"/>
</svg>
