<svg width="71" height="81" viewBox="0 0 71 81" fill="none" xmlns="http://www.w3.org/2000/svg">
<path fill-rule="evenodd" clip-rule="evenodd" d="M5 12H20.4667L21 13.56L17.8 15.64L19.9333 18.76L17.8 21.88L21 23.96V25H5L7.66667 18.24L5 12Z" stroke="#EF7F1A" stroke-width="2" stroke-miterlimit="22.9256" stroke-linecap="round" stroke-linejoin="round"/>
<path fill-rule="evenodd" clip-rule="evenodd" d="M66 12H50.5161L50 13.56L52.5806 15.64L51.0323 18.76L52.5806 21.88L50 23.96V25H66L62.9032 18.24L66 12Z" stroke="#EF7F1A" stroke-width="2" stroke-miterlimit="22.9256" stroke-linecap="round" stroke-linejoin="round"/>
<path fill-rule="evenodd" clip-rule="evenodd" d="M35.7612 1L38.3731 3.64706L42.0299 2.05882L43.597 5.23529H47.2537L47.7761 8.94118L50.9104 10L50.3881 13.7059L53 15.8235L51.4328 19L53 22.1765L50.3881 24.2941L50.9104 28L47.7761 29.0588L47.2537 32.7647H43.597L42.0299 35.9412L38.3731 34.3529L35.7612 37L33.1493 34.3529L29.4925 35.9412L27.9254 32.7647H24.2687L23.7463 29.0588L20.0896 28L21.1343 24.2941L18 22.1765L20.0896 19L18 15.8235L21.1343 13.7059L20.0896 10L23.7463 8.94118L24.2687 5.23529H27.9254L29.4925 2.05882L33.1493 3.64706L35.7612 1Z" stroke="#EF7F1A" stroke-width="2" stroke-miterlimit="22.9256" stroke-linecap="round" stroke-linejoin="round"/>
<path fill-rule="evenodd" clip-rule="evenodd" d="M35.5 6L37.5833 8.12245L39.6667 7.06122L41.2292 9.18367H43.8333V11.8367L46.4375 12.898L45.9167 15.0204L48 17.1429L46.4375 19.2653L48 21.3878L45.9167 22.9796L46.4375 25.6327L43.8333 26.6939V29.3469L41.2292 28.8163L39.6667 31.4694L37.5833 30.4082L35.5 32L33.4167 30.4082L31.3333 31.4694L29.7708 29.3469H27.1667V26.6939L24.5625 25.6327L25.0833 22.9796L23 21.3878L24.0417 19.2653L23 17.1429L25.0833 15.551L24.5625 12.898L26.6458 11.8367L27.1667 9.18367H29.7708L31.3333 7.06122L33.4167 8.12245L35.5 6Z" stroke="#EF7F1A" stroke-miterlimit="22.9256" stroke-linecap="round" stroke-linejoin="round"/>
<path fill-rule="evenodd" clip-rule="evenodd" d="M33 13.0968V10H39V13.0968H37.5V23.4194H39V26H33V23.4194H34.5V13.0968H33Z" stroke="#EF7F1A" stroke-miterlimit="22.9256" stroke-linecap="round" stroke-linejoin="round"/>
<path fill-rule="evenodd" clip-rule="evenodd" d="M26 39L27 40.6364L29 41.1818L28 42.8182V45L26 44.4545L24 45V42.8182L23 41.1818L24.5 40.6364L26 39Z" stroke="#EF7F1A" stroke-miterlimit="22.9256" stroke-linecap="round" stroke-linejoin="round"/>
<path fill-rule="evenodd" clip-rule="evenodd" d="M36 40L37 41.5L39 42.5L38 44V46L36 45.5L34 46V44L33 42.5L34.5 41.5L36 40Z" stroke="#EF7F1A" stroke-miterlimit="22.9256" stroke-linecap="round" stroke-linejoin="round"/>
<path fill-rule="evenodd" clip-rule="evenodd" d="M45 38L46 39.6364L48 40.1818L47 41.8182V44L45 43.4545L43 44V42.3636L42 40.1818L43.5 39.6364L45 38Z" stroke="#EF7F1A" stroke-miterlimit="22.9256" stroke-linecap="round" stroke-linejoin="round"/>
<path fill-rule="evenodd" clip-rule="evenodd" d="M41 48L42 50L44 50.5L43 52V54L41 53.5L39 54V52L38 50.5L40 50L41 48Z" stroke="#EF7F1A" stroke-miterlimit="22.9256" stroke-linecap="round" stroke-linejoin="round"/>
<path fill-rule="evenodd" clip-rule="evenodd" d="M31.2308 48L32.8462 49.5L35 50.5L33.3846 52V54L31.7692 53.5L29.6154 54V52L28 50.5L30.1538 50L31.2308 48Z" stroke="#EF7F1A" stroke-miterlimit="22.9256" stroke-linecap="round" stroke-linejoin="round"/>
<path fill-rule="evenodd" clip-rule="evenodd" d="M26 70C26 67.4 26 63.24 25.4792 60.64C24.9583 58.04 23.9167 56.48 22.875 55.44C21.8333 54.4 21.3125 53.36 20.2708 52.32C19.2292 51.28 18.1875 50.24 17.1458 48.68C15.5833 47.12 13.5 44.52 12.4583 43.48C10.8958 42.44 9.85417 42.96 9.33333 42.96C8.8125 43.48 8.29167 44 8.8125 44.52C8.8125 45.04 8.8125 45.56 9.85417 47.12C10.8958 48.68 11.9375 50.24 12.4583 51.8C13.5 53.36 13.5 54.4 13.5 54.92C12.9792 55.44 12.4583 55.44 11.4167 53.88C10.375 52.32 8.8125 49.72 7.77083 47.64C6.72917 45.56 6.20833 44.52 6.20833 42.44C5.6875 40.36 5.6875 37.24 5.16667 35.16C5.16667 33.6 4.64583 32.04 4.125 31.52C3.60417 31 2.5625 31 2.04167 31C1.52083 31.52 1 32.04 1 32.56C1 33.6 1 34.12 1.52083 37.24C1.52083 40.36 2.04167 46.08 2.04167 48.68C2.5625 51.8 2.5625 51.8 4.64583 54.4C6.72917 57 10.375 61.16 12.4583 63.76C14.0208 66.36 14.0208 66.36 14.5417 67.4C14.5417 67.92 14.5417 68.96 14.5417 70H26Z" stroke="#EF7F1A" stroke-width="2" stroke-miterlimit="22.9256" stroke-linecap="round" stroke-linejoin="round"/>
<path d="M5 32.5C5.5 32.5 5.5 32 6 32C6.5 32 7 32 7.5 32.5L8 33C8 33.5 8.5 34 8.5 35.5C9 37 9.5 39.5 10 42" stroke="#EF7F1A" stroke-width="2" stroke-miterlimit="22.9256" stroke-linecap="round" stroke-linejoin="round"/>
<path d="M8 34C8 34 8.55556 34 9.11111 34C9.11111 34 9.66667 34 10.2222 34.5263C10.2222 34.5263 10.7778 35.0526 10.7778 35.5789C11.3333 36.1053 11.3333 37.1579 11.8889 38.7368C11.8889 39.7895 12.4444 41.8947 13 44" stroke="#EF7F1A" stroke-width="2" stroke-miterlimit="22.9256" stroke-linecap="round" stroke-linejoin="round"/>
<path d="M28 70H12V80H28V70Z" stroke="#EF7F1A" stroke-width="2" stroke-miterlimit="22.9256" stroke-linecap="round" stroke-linejoin="round"/>
<path fill-rule="evenodd" clip-rule="evenodd" d="M44 70C44 67.913 44 63.7391 44.5258 60.6087C45.0517 58 46.1034 56.9565 47.1551 55.913C48.2067 54.3478 49.2584 53.3043 50.3101 52.7826C51.3618 51.7391 51.8876 50.6957 53.4652 49.1304C55.0427 47.0435 57.1461 44.9565 58.1978 43.913C59.7753 42.8696 60.827 42.8696 61.3528 43.3913C61.8786 43.3913 62.4045 43.913 62.4045 44.4348C61.8787 44.9565 61.8786 46 60.827 47.0435C60.3011 48.6087 58.7236 50.6957 58.1978 52.2609C57.1461 53.8261 57.1461 54.8696 57.1461 55.3913C57.6719 55.913 58.1978 55.913 59.2494 54.3478C60.3011 52.7826 61.8787 49.6522 62.9303 47.5652C63.982 45.4783 64.5079 44.4348 64.5079 42.3478C65.0337 40.2609 65.5595 37.6522 65.5595 35.5652C66.0854 33.4783 66.0854 32.4348 66.6112 31.3913C67.1371 30.8696 68.1888 30.8696 68.7146 31.3913C69.2404 31.3913 69.7663 31.913 69.7663 32.9565C70.2921 33.4783 69.7663 34.5217 69.7663 37.6522C69.2404 40.7826 69.2404 46 68.7146 48.6087C68.1888 51.7391 68.1888 52.2609 66.0854 54.3478C63.982 56.9565 60.3011 61.6522 58.1978 63.7391C56.6202 66.3478 56.0944 66.3478 56.0944 67.3913C56.0944 67.913 56.0944 68.9565 56.0944 70H44V70Z" stroke="#EF7F1A" stroke-width="2" stroke-miterlimit="22.9256" stroke-linecap="round" stroke-linejoin="round"/>
<path d="M66 33.3797C65.5 33.3797 65.5 33.3797 65 33.3797C64.5 32.8734 64 32.8734 64 33.3797C63.5 33.3797 63 33.8861 63 34.3924C63 34.3924 63 34.8987 62.5 36.4177C62 37.9367 61.5 40.4684 61 43" stroke="#EF7F1A" stroke-width="2" stroke-miterlimit="22.9256" stroke-linecap="round" stroke-linejoin="round"/>
<path d="M63 35C63 35 62.4444 35 61.8889 35C61.8889 35 61.3333 35 60.7778 35C60.7778 35.5 60.2222 35.5 60.2222 36C59.6667 37 59.6667 37.5 59.1111 39C58.5556 40.5 58.5556 42 58 44" stroke="#EF7F1A" stroke-width="2" stroke-miterlimit="22.9256" stroke-linecap="round" stroke-linejoin="round"/>
<path d="M58 70H42V80H58V70Z" stroke="#EF7F1A" stroke-width="2" stroke-miterlimit="22.9256" stroke-linecap="round" stroke-linejoin="round"/>
</svg>
